<?xml version="1.0" encoding="utf-8" standalone="no"?>
<!DOCTYPE svg PUBLIC "-//W3C//DTD SVG 1.1//EN"
  "http://www.w3.org/Graphics/SVG/1.1/DTD/svg11.dtd">
<!-- Created with matplotlib (https://matplotlib.org/) -->
<svg height="614.274375pt" version="1.1" viewBox="0 0 1165.252625 614.274375" width="1165.252625pt" xmlns="http://www.w3.org/2000/svg" xmlns:xlink="http://www.w3.org/1999/xlink">
 <metadata>
  <rdf:RDF xmlns:cc="http://creativecommons.org/ns#" xmlns:dc="http://purl.org/dc/elements/1.1/" xmlns:rdf="http://www.w3.org/1999/02/22-rdf-syntax-ns#">
   <cc:Work>
    <dc:type rdf:resource="http://purl.org/dc/dcmitype/StillImage"/>
    <dc:date>2022-12-07T08:47:54.498661</dc:date>
    <dc:format>image/svg+xml</dc:format>
    <dc:creator>
     <cc:Agent>
      <dc:title>Matplotlib v3.3.4, https://matplotlib.org/</dc:title>
     </cc:Agent>
    </dc:creator>
   </cc:Work>
  </rdf:RDF>
 </metadata>
 <defs>
  <style type="text/css">*{stroke-linecap:butt;stroke-linejoin:round;}</style>
 </defs>
 <g id="figure_1">
  <g id="patch_1">
   <path d="M 0 614.274375 
L 1165.252625 614.274375 
L 1165.252625 0 
L 0 0 
z
" style="fill:#ffffff;"/>
  </g>
  <g id="axes_1">
   <g id="patch_2">
    <path d="M 34.240625 576.718125 
L 1094.440625 576.718125 
L 1094.440625 22.318125 
L 34.240625 22.318125 
z
" style="fill:#ffffff;"/>
   </g>
   <g id="patch_3">
    <path clip-path="url(#p628d4b1595)" d="M 0 0 
z
" style="fill:#1f77b4;"/>
   </g>
   <g id="patch_4">
    <path clip-path="url(#p628d4b1595)" d="M 0 0 
z
" style="fill:#1f77b4;"/>
   </g>
   <g id="patch_5">
    <path clip-path="url(#p628d4b1595)" d="M 0 0 
z
" style="fill:#1f77b4;"/>
   </g>
   <g id="patch_6">
    <path clip-path="url(#p628d4b1595)" d="M 0 0 
z
" style="fill:#1f77b4;"/>
   </g>
   <g id="patch_7">
    <path clip-path="url(#p628d4b1595)" d="M 0 0 
z
" style="fill:#1f77b4;"/>
   </g>
   <g id="patch_8">
    <path clip-path="url(#p628d4b1595)" d="M 0 0 
z
" style="fill:#1f77b4;"/>
   </g>
   <g id="patch_9">
    <path clip-path="url(#p628d4b1595)" d="M 0 0 
z
" style="fill:#1f77b4;"/>
   </g>
   <g id="patch_10">
    <path clip-path="url(#p628d4b1595)" d="M 0 0 
z
" style="fill:#1f77b4;"/>
   </g>
   <g id="patch_11">
    <path clip-path="url(#p628d4b1595)" d="M 0 0 
z
" style="fill:#1f77b4;"/>
   </g>
   <g id="patch_12">
    <path clip-path="url(#p628d4b1595)" d="M 0 0 
z
" style="fill:#1f77b4;"/>
   </g>
   <g id="patch_13">
    <path clip-path="url(#p628d4b1595)" d="M 0 0 
z
" style="fill:#1f77b4;"/>
   </g>
   <g id="patch_14">
    <path clip-path="url(#p628d4b1595)" d="M 0 0 
z
" style="fill:#1f77b4;"/>
   </g>
   <g id="patch_15">
    <path clip-path="url(#p628d4b1595)" d="M 0 0 
z
" style="fill:#1f77b4;"/>
   </g>
   <g id="patch_16">
    <path clip-path="url(#p628d4b1595)" d="M 0 0 
z
" style="fill:#1f77b4;"/>
   </g>
   <g id="patch_17">
    <path clip-path="url(#p628d4b1595)" d="M 0 0 
z
" style="fill:#1f77b4;"/>
   </g>
   <g id="patch_18">
    <path clip-path="url(#p628d4b1595)" d="M 0 0 
z
" style="fill:#1f77b4;"/>
   </g>
   <g id="patch_19">
    <path clip-path="url(#p628d4b1595)" d="M 0 0 
z
" style="fill:#1f77b4;"/>
   </g>
   <g id="patch_20">
    <path clip-path="url(#p628d4b1595)" d="M 0 0 
z
" style="fill:#1f77b4;"/>
   </g>
   <g id="patch_21">
    <path clip-path="url(#p628d4b1595)" d="M 0 0 
z
" style="fill:#1f77b4;"/>
   </g>
   <g id="patch_22">
    <path clip-path="url(#p628d4b1595)" d="M 0 0 
z
" style="fill:#1f77b4;"/>
   </g>
   <g id="patch_23">
    <path clip-path="url(#p628d4b1595)" d="M 0 0 
z
" style="fill:#1f77b4;"/>
   </g>
   <g id="patch_24">
    <path clip-path="url(#p628d4b1595)" d="M 0 0 
z
" style="fill:#1f77b4;"/>
   </g>
   <g id="patch_25">
    <path clip-path="url(#p628d4b1595)" d="M 0 0 
z
" style="fill:#1f77b4;"/>
   </g>
   <g id="patch_26">
    <path clip-path="url(#p628d4b1595)" d="M 0 0 
z
" style="fill:#1f77b4;"/>
   </g>
   <g id="patch_27">
    <path clip-path="url(#p628d4b1595)" d="M 0 0 
z
" style="fill:#1f77b4;"/>
   </g>
   <g id="patch_28">
    <path clip-path="url(#p628d4b1595)" d="M 0 0 
z
" style="fill:#1f77b4;"/>
   </g>
   <g id="patch_29">
    <path clip-path="url(#p628d4b1595)" d="M 0 0 
z
" style="fill:#1f77b4;"/>
   </g>
   <g id="patch_30">
    <path clip-path="url(#p628d4b1595)" d="M 0 0 
z
" style="fill:#1f77b4;"/>
   </g>
   <g id="patch_31">
    <path clip-path="url(#p628d4b1595)" d="M 0 0 
z
" style="fill:#1f77b4;"/>
   </g>
   <g id="patch_32">
    <path clip-path="url(#p628d4b1595)" d="M 0 0 
z
" style="fill:#1f77b4;"/>
   </g>
   <g id="patch_33">
    <path clip-path="url(#p628d4b1595)" d="M 0 0 
z
" style="fill:#1f77b4;"/>
   </g>
   <g id="patch_34">
    <path clip-path="url(#p628d4b1595)" d="M 0 0 
z
" style="fill:#1f77b4;"/>
   </g>
   <g id="patch_35">
    <path clip-path="url(#p628d4b1595)" d="M 0 0 
z
" style="fill:#ff7f0e;"/>
   </g>
   <g id="patch_36">
    <path clip-path="url(#p628d4b1595)" d="M 0 0 
z
" style="fill:#ff7f0e;"/>
   </g>
   <g id="patch_37">
    <path clip-path="url(#p628d4b1595)" d="M 0 0 
z
" style="fill:#ff7f0e;"/>
   </g>
   <g id="patch_38">
    <path clip-path="url(#p628d4b1595)" d="M 0 0 
z
" style="fill:#ff7f0e;"/>
   </g>
   <g id="patch_39">
    <path clip-path="url(#p628d4b1595)" d="M 0 0 
z
" style="fill:#ff7f0e;"/>
   </g>
   <g id="patch_40">
    <path clip-path="url(#p628d4b1595)" d="M 0 0 
z
" style="fill:#ff7f0e;"/>
   </g>
   <g id="patch_41">
    <path clip-path="url(#p628d4b1595)" d="M 0 0 
z
" style="fill:#ff7f0e;"/>
   </g>
   <g id="patch_42">
    <path clip-path="url(#p628d4b1595)" d="M 0 0 
z
" style="fill:#ff7f0e;"/>
   </g>
   <g id="patch_43">
    <path clip-path="url(#p628d4b1595)" d="M 0 0 
z
" style="fill:#ff7f0e;"/>
   </g>
   <g id="patch_44">
    <path clip-path="url(#p628d4b1595)" d="M 0 0 
z
" style="fill:#ff7f0e;"/>
   </g>
   <g id="patch_45">
    <path clip-path="url(#p628d4b1595)" d="M 0 0 
z
" style="fill:#ff7f0e;"/>
   </g>
   <g id="patch_46">
    <path clip-path="url(#p628d4b1595)" d="M 0 0 
z
" style="fill:#ff7f0e;"/>
   </g>
   <g id="patch_47">
    <path clip-path="url(#p628d4b1595)" d="M 0 0 
z
" style="fill:#ff7f0e;"/>
   </g>
   <g id="patch_48">
    <path clip-path="url(#p628d4b1595)" d="M 0 0 
z
" style="fill:#ff7f0e;"/>
   </g>
   <g id="patch_49">
    <path clip-path="url(#p628d4b1595)" d="M 0 0 
z
" style="fill:#ff7f0e;"/>
   </g>
   <g id="patch_50">
    <path clip-path="url(#p628d4b1595)" d="M 0 0 
z
" style="fill:#ff7f0e;"/>
   </g>
   <g id="patch_51">
    <path clip-path="url(#p628d4b1595)" d="M 0 0 
z
" style="fill:#ff7f0e;"/>
   </g>
   <g id="patch_52">
    <path clip-path="url(#p628d4b1595)" d="M 0 0 
z
" style="fill:#ff7f0e;"/>
   </g>
   <g id="patch_53">
    <path clip-path="url(#p628d4b1595)" d="M 0 0 
z
" style="fill:#ff7f0e;"/>
   </g>
   <g id="patch_54">
    <path clip-path="url(#p628d4b1595)" d="M 0 0 
z
" style="fill:#ff7f0e;"/>
   </g>
   <g id="patch_55">
    <path clip-path="url(#p628d4b1595)" d="M 0 0 
z
" style="fill:#ff7f0e;"/>
   </g>
   <g id="patch_56">
    <path clip-path="url(#p628d4b1595)" d="M 0 0 
z
" style="fill:#ff7f0e;"/>
   </g>
   <g id="patch_57">
    <path clip-path="url(#p628d4b1595)" d="M 0 0 
z
" style="fill:#ff7f0e;"/>
   </g>
   <g id="patch_58">
    <path clip-path="url(#p628d4b1595)" d="M 0 0 
z
" style="fill:#ff7f0e;"/>
   </g>
   <g id="patch_59">
    <path clip-path="url(#p628d4b1595)" d="M 0 0 
z
" style="fill:#ff7f0e;"/>
   </g>
   <g id="patch_60">
    <path clip-path="url(#p628d4b1595)" d="M 0 0 
z
" style="fill:#ff7f0e;"/>
   </g>
   <g id="patch_61">
    <path clip-path="url(#p628d4b1595)" d="M 0 0 
z
" style="fill:#ff7f0e;"/>
   </g>
   <g id="patch_62">
    <path clip-path="url(#p628d4b1595)" d="M 0 0 
z
" style="fill:#ff7f0e;"/>
   </g>
   <g id="patch_63">
    <path clip-path="url(#p628d4b1595)" d="M 0 0 
z
" style="fill:#ff7f0e;"/>
   </g>
   <g id="patch_64">
    <path clip-path="url(#p628d4b1595)" d="M 0 0 
z
" style="fill:#ff7f0e;"/>
   </g>
   <g id="patch_65">
    <path clip-path="url(#p628d4b1595)" d="M 0 0 
z
" style="fill:#ff7f0e;"/>
   </g>
   <g id="patch_66">
    <path clip-path="url(#p628d4b1595)" d="M 0 0 
z
" style="fill:#ff7f0e;"/>
   </g>
   <g id="patch_67">
    <path clip-path="url(#p628d4b1595)" d="M 0 0 
z
" style="fill:#2ca02c;"/>
   </g>
   <g id="patch_68">
    <path clip-path="url(#p628d4b1595)" d="M 0 0 
z
" style="fill:#2ca02c;"/>
   </g>
   <g id="patch_69">
    <path clip-path="url(#p628d4b1595)" d="M 0 0 
z
" style="fill:#2ca02c;"/>
   </g>
   <g id="patch_70">
    <path clip-path="url(#p628d4b1595)" d="M 0 0 
z
" style="fill:#2ca02c;"/>
   </g>
   <g id="patch_71">
    <path clip-path="url(#p628d4b1595)" d="M 0 0 
z
" style="fill:#2ca02c;"/>
   </g>
   <g id="patch_72">
    <path clip-path="url(#p628d4b1595)" d="M 0 0 
z
" style="fill:#2ca02c;"/>
   </g>
   <g id="patch_73">
    <path clip-path="url(#p628d4b1595)" d="M 0 0 
z
" style="fill:#2ca02c;"/>
   </g>
   <g id="patch_74">
    <path clip-path="url(#p628d4b1595)" d="M 0 0 
z
" style="fill:#2ca02c;"/>
   </g>
   <g id="patch_75">
    <path clip-path="url(#p628d4b1595)" d="M 0 0 
z
" style="fill:#2ca02c;"/>
   </g>
   <g id="patch_76">
    <path clip-path="url(#p628d4b1595)" d="M 0 0 
z
" style="fill:#2ca02c;"/>
   </g>
   <g id="patch_77">
    <path clip-path="url(#p628d4b1595)" d="M 0 0 
z
" style="fill:#2ca02c;"/>
   </g>
   <g id="patch_78">
    <path clip-path="url(#p628d4b1595)" d="M 0 0 
z
" style="fill:#2ca02c;"/>
   </g>
   <g id="patch_79">
    <path clip-path="url(#p628d4b1595)" d="M 0 0 
z
" style="fill:#2ca02c;"/>
   </g>
   <g id="patch_80">
    <path clip-path="url(#p628d4b1595)" d="M 0 0 
z
" style="fill:#2ca02c;"/>
   </g>
   <g id="patch_81">
    <path clip-path="url(#p628d4b1595)" d="M 0 0 
z
" style="fill:#2ca02c;"/>
   </g>
   <g id="patch_82">
    <path clip-path="url(#p628d4b1595)" d="M 0 0 
z
" style="fill:#2ca02c;"/>
   </g>
   <g id="patch_83">
    <path clip-path="url(#p628d4b1595)" d="M 0 0 
z
" style="fill:#2ca02c;"/>
   </g>
   <g id="patch_84">
    <path clip-path="url(#p628d4b1595)" d="M 0 0 
z
" style="fill:#2ca02c;"/>
   </g>
   <g id="patch_85">
    <path clip-path="url(#p628d4b1595)" d="M 0 0 
z
" style="fill:#2ca02c;"/>
   </g>
   <g id="patch_86">
    <path clip-path="url(#p628d4b1595)" d="M 0 0 
z
" style="fill:#2ca02c;"/>
   </g>
   <g id="patch_87">
    <path clip-path="url(#p628d4b1595)" d="M 0 0 
z
" style="fill:#2ca02c;"/>
   </g>
   <g id="patch_88">
    <path clip-path="url(#p628d4b1595)" d="M 0 0 
z
" style="fill:#2ca02c;"/>
   </g>
   <g id="patch_89">
    <path clip-path="url(#p628d4b1595)" d="M 0 0 
z
" style="fill:#2ca02c;"/>
   </g>
   <g id="patch_90">
    <path clip-path="url(#p628d4b1595)" d="M 0 0 
z
" style="fill:#2ca02c;"/>
   </g>
   <g id="patch_91">
    <path clip-path="url(#p628d4b1595)" d="M 0 0 
z
" style="fill:#2ca02c;"/>
   </g>
   <g id="patch_92">
    <path clip-path="url(#p628d4b1595)" d="M 0 0 
z
" style="fill:#2ca02c;"/>
   </g>
   <g id="patch_93">
    <path clip-path="url(#p628d4b1595)" d="M 0 0 
z
" style="fill:#2ca02c;"/>
   </g>
   <g id="patch_94">
    <path clip-path="url(#p628d4b1595)" d="M 0 0 
z
" style="fill:#2ca02c;"/>
   </g>
   <g id="patch_95">
    <path clip-path="url(#p628d4b1595)" d="M 0 0 
z
" style="fill:#2ca02c;"/>
   </g>
   <g id="patch_96">
    <path clip-path="url(#p628d4b1595)" d="M 0 0 
z
" style="fill:#2ca02c;"/>
   </g>
   <g id="patch_97">
    <path clip-path="url(#p628d4b1595)" d="M 0 0 
z
" style="fill:#2ca02c;"/>
   </g>
   <g id="patch_98">
    <path clip-path="url(#p628d4b1595)" d="M 0 0 
z
" style="fill:#2ca02c;"/>
   </g>
   <g id="patch_99">
    <path clip-path="url(#p628d4b1595)" d="M 0 0 
z
" style="fill:#d62728;"/>
   </g>
   <g id="patch_100">
    <path clip-path="url(#p628d4b1595)" d="M 0 0 
z
" style="fill:#d62728;"/>
   </g>
   <g id="patch_101">
    <path clip-path="url(#p628d4b1595)" d="M 0 0 
z
" style="fill:#d62728;"/>
   </g>
   <g id="patch_102">
    <path clip-path="url(#p628d4b1595)" d="M 0 0 
z
" style="fill:#d62728;"/>
   </g>
   <g id="patch_103">
    <path clip-path="url(#p628d4b1595)" d="M 0 0 
z
" style="fill:#d62728;"/>
   </g>
   <g id="patch_104">
    <path clip-path="url(#p628d4b1595)" d="M 0 0 
z
" style="fill:#d62728;"/>
   </g>
   <g id="patch_105">
    <path clip-path="url(#p628d4b1595)" d="M 0 0 
z
" style="fill:#d62728;"/>
   </g>
   <g id="patch_106">
    <path clip-path="url(#p628d4b1595)" d="M 0 0 
z
" style="fill:#d62728;"/>
   </g>
   <g id="patch_107">
    <path clip-path="url(#p628d4b1595)" d="M 0 0 
z
" style="fill:#d62728;"/>
   </g>
   <g id="patch_108">
    <path clip-path="url(#p628d4b1595)" d="M 0 0 
z
" style="fill:#d62728;"/>
   </g>
   <g id="patch_109">
    <path clip-path="url(#p628d4b1595)" d="M 0 0 
z
" style="fill:#d62728;"/>
   </g>
   <g id="patch_110">
    <path clip-path="url(#p628d4b1595)" d="M 0 0 
z
" style="fill:#d62728;"/>
   </g>
   <g id="patch_111">
    <path clip-path="url(#p628d4b1595)" d="M 0 0 
z
" style="fill:#d62728;"/>
   </g>
   <g id="patch_112">
    <path clip-path="url(#p628d4b1595)" d="M 0 0 
z
" style="fill:#d62728;"/>
   </g>
   <g id="patch_113">
    <path clip-path="url(#p628d4b1595)" d="M 0 0 
z
" style="fill:#d62728;"/>
   </g>
   <g id="patch_114">
    <path clip-path="url(#p628d4b1595)" d="M 0 0 
z
" style="fill:#d62728;"/>
   </g>
   <g id="patch_115">
    <path clip-path="url(#p628d4b1595)" d="M 0 0 
z
" style="fill:#d62728;"/>
   </g>
   <g id="patch_116">
    <path clip-path="url(#p628d4b1595)" d="M 0 0 
z
" style="fill:#d62728;"/>
   </g>
   <g id="patch_117">
    <path clip-path="url(#p628d4b1595)" d="M 0 0 
z
" style="fill:#d62728;"/>
   </g>
   <g id="patch_118">
    <path clip-path="url(#p628d4b1595)" d="M 0 0 
z
" style="fill:#d62728;"/>
   </g>
   <g id="patch_119">
    <path clip-path="url(#p628d4b1595)" d="M 0 0 
z
" style="fill:#d62728;"/>
   </g>
   <g id="patch_120">
    <path clip-path="url(#p628d4b1595)" d="M 0 0 
z
" style="fill:#d62728;"/>
   </g>
   <g id="patch_121">
    <path clip-path="url(#p628d4b1595)" d="M 0 0 
z
" style="fill:#d62728;"/>
   </g>
   <g id="patch_122">
    <path clip-path="url(#p628d4b1595)" d="M 0 0 
z
" style="fill:#d62728;"/>
   </g>
   <g id="patch_123">
    <path clip-path="url(#p628d4b1595)" d="M 0 0 
z
" style="fill:#d62728;"/>
   </g>
   <g id="patch_124">
    <path clip-path="url(#p628d4b1595)" d="M 0 0 
z
" style="fill:#d62728;"/>
   </g>
   <g id="patch_125">
    <path clip-path="url(#p628d4b1595)" d="M 0 0 
z
" style="fill:#d62728;"/>
   </g>
   <g id="patch_126">
    <path clip-path="url(#p628d4b1595)" d="M 0 0 
z
" style="fill:#d62728;"/>
   </g>
   <g id="patch_127">
    <path clip-path="url(#p628d4b1595)" d="M 0 0 
z
" style="fill:#d62728;"/>
   </g>
   <g id="patch_128">
    <path clip-path="url(#p628d4b1595)" d="M 0 0 
z
" style="fill:#d62728;"/>
   </g>
   <g id="patch_129">
    <path clip-path="url(#p628d4b1595)" d="M 0 0 
z
" style="fill:#d62728;"/>
   </g>
   <g id="patch_130">
    <path clip-path="url(#p628d4b1595)" d="M 0 0 
z
" style="fill:#d62728;"/>
   </g>
   <g id="patch_131">
    <path clip-path="url(#p628d4b1595)" d="M 0 0 
z
" style="fill:#9467bd;"/>
   </g>
   <g id="patch_132">
    <path clip-path="url(#p628d4b1595)" d="M 0 0 
z
" style="fill:#9467bd;"/>
   </g>
   <g id="patch_133">
    <path clip-path="url(#p628d4b1595)" d="M 0 0 
z
" style="fill:#9467bd;"/>
   </g>
   <g id="patch_134">
    <path clip-path="url(#p628d4b1595)" d="M 0 0 
z
" style="fill:#9467bd;"/>
   </g>
   <g id="patch_135">
    <path clip-path="url(#p628d4b1595)" d="M 0 0 
z
" style="fill:#9467bd;"/>
   </g>
   <g id="patch_136">
    <path clip-path="url(#p628d4b1595)" d="M 0 0 
z
" style="fill:#9467bd;"/>
   </g>
   <g id="patch_137">
    <path clip-path="url(#p628d4b1595)" d="M 0 0 
z
" style="fill:#9467bd;"/>
   </g>
   <g id="patch_138">
    <path clip-path="url(#p628d4b1595)" d="M 0 0 
z
" style="fill:#9467bd;"/>
   </g>
   <g id="patch_139">
    <path clip-path="url(#p628d4b1595)" d="M 0 0 
z
" style="fill:#9467bd;"/>
   </g>
   <g id="patch_140">
    <path clip-path="url(#p628d4b1595)" d="M 0 0 
z
" style="fill:#9467bd;"/>
   </g>
   <g id="patch_141">
    <path clip-path="url(#p628d4b1595)" d="M 0 0 
z
" style="fill:#9467bd;"/>
   </g>
   <g id="patch_142">
    <path clip-path="url(#p628d4b1595)" d="M 0 0 
z
" style="fill:#9467bd;"/>
   </g>
   <g id="patch_143">
    <path clip-path="url(#p628d4b1595)" d="M 0 0 
z
" style="fill:#9467bd;"/>
   </g>
   <g id="patch_144">
    <path clip-path="url(#p628d4b1595)" d="M 0 0 
z
" style="fill:#9467bd;"/>
   </g>
   <g id="patch_145">
    <path clip-path="url(#p628d4b1595)" d="M 0 0 
z
" style="fill:#9467bd;"/>
   </g>
   <g id="patch_146">
    <path clip-path="url(#p628d4b1595)" d="M 0 0 
z
" style="fill:#9467bd;"/>
   </g>
   <g id="patch_147">
    <path clip-path="url(#p628d4b1595)" d="M 0 0 
z
" style="fill:#9467bd;"/>
   </g>
   <g id="patch_148">
    <path clip-path="url(#p628d4b1595)" d="M 0 0 
z
" style="fill:#9467bd;"/>
   </g>
   <g id="patch_149">
    <path clip-path="url(#p628d4b1595)" d="M 0 0 
z
" style="fill:#9467bd;"/>
   </g>
   <g id="patch_150">
    <path clip-path="url(#p628d4b1595)" d="M 0 0 
z
" style="fill:#9467bd;"/>
   </g>
   <g id="patch_151">
    <path clip-path="url(#p628d4b1595)" d="M 0 0 
z
" style="fill:#9467bd;"/>
   </g>
   <g id="patch_152">
    <path clip-path="url(#p628d4b1595)" d="M 0 0 
z
" style="fill:#9467bd;"/>
   </g>
   <g id="patch_153">
    <path clip-path="url(#p628d4b1595)" d="M 0 0 
z
" style="fill:#9467bd;"/>
   </g>
   <g id="patch_154">
    <path clip-path="url(#p628d4b1595)" d="M 0 0 
z
" style="fill:#9467bd;"/>
   </g>
   <g id="patch_155">
    <path clip-path="url(#p628d4b1595)" d="M 0 0 
z
" style="fill:#9467bd;"/>
   </g>
   <g id="patch_156">
    <path clip-path="url(#p628d4b1595)" d="M 0 0 
z
" style="fill:#9467bd;"/>
   </g>
   <g id="patch_157">
    <path clip-path="url(#p628d4b1595)" d="M 0 0 
z
" style="fill:#9467bd;"/>
   </g>
   <g id="patch_158">
    <path clip-path="url(#p628d4b1595)" d="M 0 0 
z
" style="fill:#9467bd;"/>
   </g>
   <g id="patch_159">
    <path clip-path="url(#p628d4b1595)" d="M 0 0 
z
" style="fill:#9467bd;"/>
   </g>
   <g id="patch_160">
    <path clip-path="url(#p628d4b1595)" d="M 0 0 
z
" style="fill:#9467bd;"/>
   </g>
   <g id="patch_161">
    <path clip-path="url(#p628d4b1595)" d="M 0 0 
z
" style="fill:#9467bd;"/>
   </g>
   <g id="patch_162">
    <path clip-path="url(#p628d4b1595)" d="M 0 0 
z
" style="fill:#9467bd;"/>
   </g>
   <g id="patch_163">
    <path clip-path="url(#p628d4b1595)" d="M 82.431534 576.718125 
L 85.221616 576.718125 
L 85.221616 314.00431 
L 82.431534 314.00431 
z
" style="fill:#8c564b;"/>
   </g>
   <g id="patch_164">
    <path clip-path="url(#p628d4b1595)" d="M 113.432441 576.718125 
L 116.222522 576.718125 
L 116.222522 337.177821 
L 113.432441 337.177821 
z
" style="fill:#8c564b;"/>
   </g>
   <g id="patch_165">
    <path clip-path="url(#p628d4b1595)" d="M 144.433347 576.718125 
L 147.223429 576.718125 
L 147.223429 321.33887 
L 144.433347 321.33887 
z
" style="fill:#8c564b;"/>
   </g>
   <g id="patch_166">
    <path clip-path="url(#p628d4b1595)" d="M 175.434253 576.718125 
L 178.224335 576.718125 
L 178.224335 296.803843 
L 175.434253 296.803843 
z
" style="fill:#8c564b;"/>
   </g>
   <g id="patch_167">
    <path clip-path="url(#p628d4b1595)" d="M 206.43516 576.718125 
L 209.225242 576.718125 
L 209.225242 301.436122 
L 206.43516 301.436122 
z
" style="fill:#8c564b;"/>
   </g>
   <g id="patch_168">
    <path clip-path="url(#p628d4b1595)" d="M 237.436066 576.718125 
L 240.226148 576.718125 
L 240.226148 297.494713 
L 237.436066 297.494713 
z
" style="fill:#8c564b;"/>
   </g>
   <g id="patch_169">
    <path clip-path="url(#p628d4b1595)" d="M 268.436973 576.718125 
L 271.227054 576.718125 
L 271.227054 266.827008 
L 268.436973 266.827008 
z
" style="fill:#8c564b;"/>
   </g>
   <g id="patch_170">
    <path clip-path="url(#p628d4b1595)" d="M 299.437879 576.718125 
L 302.227961 576.718125 
L 302.227961 304.583751 
L 299.437879 304.583751 
z
" style="fill:#8c564b;"/>
   </g>
   <g id="patch_171">
    <path clip-path="url(#p628d4b1595)" d="M 330.438786 576.718125 
L 333.228867 576.718125 
L 333.228867 273.6366 
L 330.438786 273.6366 
z
" style="fill:#8c564b;"/>
   </g>
   <g id="patch_172">
    <path clip-path="url(#p628d4b1595)" d="M 361.439692 576.718125 
L 364.229774 576.718125 
L 364.229774 297.48415 
L 361.439692 297.48415 
z
" style="fill:#8c564b;"/>
   </g>
   <g id="patch_173">
    <path clip-path="url(#p628d4b1595)" d="M 392.440599 576.718125 
L 395.23068 576.718125 
L 395.23068 282.425479 
L 392.440599 282.425479 
z
" style="fill:#8c564b;"/>
   </g>
   <g id="patch_174">
    <path clip-path="url(#p628d4b1595)" d="M 423.441505 576.718125 
L 426.231587 576.718125 
L 426.231587 290.63589 
L 423.441505 290.63589 
z
" style="fill:#8c564b;"/>
   </g>
   <g id="patch_175">
    <path clip-path="url(#p628d4b1595)" d="M 454.442412 576.718125 
L 457.232493 576.718125 
L 457.232493 288.99218 
L 454.442412 288.99218 
z
" style="fill:#8c564b;"/>
   </g>
   <g id="patch_176">
    <path clip-path="url(#p628d4b1595)" d="M 485.443318 576.718125 
L 488.2334 576.718125 
L 488.2334 279.640959 
L 485.443318 279.640959 
z
" style="fill:#8c564b;"/>
   </g>
   <g id="patch_177">
    <path clip-path="url(#p628d4b1595)" d="M 516.444225 576.718125 
L 519.234306 576.718125 
L 519.234306 245.43019 
L 516.444225 245.43019 
z
" style="fill:#8c564b;"/>
   </g>
   <g id="patch_178">
    <path clip-path="url(#p628d4b1595)" d="M 547.445131 576.718125 
L 550.235213 576.718125 
L 550.235213 282.028818 
L 547.445131 282.028818 
z
" style="fill:#8c564b;"/>
   </g>
   <g id="patch_179">
    <path clip-path="url(#p628d4b1595)" d="M 578.446037 576.718125 
L 581.236119 576.718125 
L 581.236119 48.718125 
L 578.446037 48.718125 
z
" style="fill:#8c564b;"/>
   </g>
   <g id="patch_180">
    <path clip-path="url(#p628d4b1595)" d="M 609.446944 576.718125 
L 612.237025 576.718125 
L 612.237025 289.088897 
L 609.446944 289.088897 
z
" style="fill:#8c564b;"/>
   </g>
   <g id="patch_181">
    <path clip-path="url(#p628d4b1595)" d="M 640.44785 576.718125 
L 643.237932 576.718125 
L 643.237932 329.770764 
L 640.44785 329.770764 
z
" style="fill:#8c564b;"/>
   </g>
   <g id="patch_182">
    <path clip-path="url(#p628d4b1595)" d="M 671.448757 576.718125 
L 674.238838 576.718125 
L 674.238838 323.697338 
L 671.448757 323.697338 
z
" style="fill:#8c564b;"/>
   </g>
   <g id="patch_183">
    <path clip-path="url(#p628d4b1595)" d="M 702.449663 576.718125 
L 705.239745 576.718125 
L 705.239745 276.216471 
L 702.449663 276.216471 
z
" style="fill:#8c564b;"/>
   </g>
   <g id="patch_184">
    <path clip-path="url(#p628d4b1595)" d="M 733.45057 576.718125 
L 736.240651 576.718125 
L 736.240651 311.276665 
L 733.45057 311.276665 
z
" style="fill:#8c564b;"/>
   </g>
   <g id="patch_185">
    <path clip-path="url(#p628d4b1595)" d="M 764.451476 576.718125 
L 767.241558 576.718125 
L 767.241558 311.798644 
L 764.451476 311.798644 
z
" style="fill:#8c564b;"/>
   </g>
   <g id="patch_186">
    <path clip-path="url(#p628d4b1595)" d="M 795.452383 576.718125 
L 798.242464 576.718125 
L 798.242464 314.024912 
L 795.452383 314.024912 
z
" style="fill:#8c564b;"/>
   </g>
   <g id="patch_187">
    <path clip-path="url(#p628d4b1595)" d="M 826.453289 576.718125 
L 829.243371 576.718125 
L 829.243371 239.11429 
L 826.453289 239.11429 
z
" style="fill:#8c564b;"/>
   </g>
   <g id="patch_188">
    <path clip-path="url(#p628d4b1595)" d="M 857.454196 576.718125 
L 860.244277 576.718125 
L 860.244277 319.116274 
L 857.454196 319.116274 
z
" style="fill:#8c564b;"/>
   </g>
   <g id="patch_189">
    <path clip-path="url(#p628d4b1595)" d="M 888.455102 576.718125 
L 891.245184 576.718125 
L 891.245184 329.69592 
L 888.455102 329.69592 
z
" style="fill:#8c564b;"/>
   </g>
   <g id="patch_190">
    <path clip-path="url(#p628d4b1595)" d="M 919.456008 576.718125 
L 922.24609 576.718125 
L 922.24609 291.044177 
L 919.456008 291.044177 
z
" style="fill:#8c564b;"/>
   </g>
   <g id="patch_191">
    <path clip-path="url(#p628d4b1595)" d="M 950.456915 576.718125 
L 953.246997 576.718125 
L 953.246997 308.748096 
L 950.456915 308.748096 
z
" style="fill:#8c564b;"/>
   </g>
   <g id="patch_192">
    <path clip-path="url(#p628d4b1595)" d="M 981.457821 576.718125 
L 984.247903 576.718125 
L 984.247903 305.025355 
L 981.457821 305.025355 
z
" style="fill:#8c564b;"/>
   </g>
   <g id="patch_193">
    <path clip-path="url(#p628d4b1595)" d="M 1012.458728 576.718125 
L 1015.248809 576.718125 
L 1015.248809 329.407524 
L 1012.458728 329.407524 
z
" style="fill:#8c564b;"/>
   </g>
   <g id="patch_194">
    <path clip-path="url(#p628d4b1595)" d="M 1043.459634 576.718125 
L 1046.249716 576.718125 
L 1046.249716 205.922829 
L 1043.459634 205.922829 
z
" style="fill:#8c564b;"/>
   </g>
   <g id="patch_195">
    <path clip-path="url(#p628d4b1595)" d="M 0 0 
z
" style="fill:#e377c2;"/>
   </g>
   <g id="patch_196">
    <path clip-path="url(#p628d4b1595)" d="M 0 0 
z
" style="fill:#e377c2;"/>
   </g>
   <g id="patch_197">
    <path clip-path="url(#p628d4b1595)" d="M 0 0 
z
" style="fill:#e377c2;"/>
   </g>
   <g id="patch_198">
    <path clip-path="url(#p628d4b1595)" d="M 0 0 
z
" style="fill:#e377c2;"/>
   </g>
   <g id="patch_199">
    <path clip-path="url(#p628d4b1595)" d="M 0 0 
z
" style="fill:#e377c2;"/>
   </g>
   <g id="patch_200">
    <path clip-path="url(#p628d4b1595)" d="M 0 0 
z
" style="fill:#e377c2;"/>
   </g>
   <g id="patch_201">
    <path clip-path="url(#p628d4b1595)" d="M 0 0 
z
" style="fill:#e377c2;"/>
   </g>
   <g id="patch_202">
    <path clip-path="url(#p628d4b1595)" d="M 0 0 
z
" style="fill:#e377c2;"/>
   </g>
   <g id="patch_203">
    <path clip-path="url(#p628d4b1595)" d="M 0 0 
z
" style="fill:#e377c2;"/>
   </g>
   <g id="patch_204">
    <path clip-path="url(#p628d4b1595)" d="M 0 0 
z
" style="fill:#e377c2;"/>
   </g>
   <g id="patch_205">
    <path clip-path="url(#p628d4b1595)" d="M 0 0 
z
" style="fill:#e377c2;"/>
   </g>
   <g id="patch_206">
    <path clip-path="url(#p628d4b1595)" d="M 0 0 
z
" style="fill:#e377c2;"/>
   </g>
   <g id="patch_207">
    <path clip-path="url(#p628d4b1595)" d="M 0 0 
z
" style="fill:#e377c2;"/>
   </g>
   <g id="patch_208">
    <path clip-path="url(#p628d4b1595)" d="M 0 0 
z
" style="fill:#e377c2;"/>
   </g>
   <g id="patch_209">
    <path clip-path="url(#p628d4b1595)" d="M 0 0 
z
" style="fill:#e377c2;"/>
   </g>
   <g id="patch_210">
    <path clip-path="url(#p628d4b1595)" d="M 0 0 
z
" style="fill:#e377c2;"/>
   </g>
   <g id="patch_211">
    <path clip-path="url(#p628d4b1595)" d="M 0 0 
z
" style="fill:#e377c2;"/>
   </g>
   <g id="patch_212">
    <path clip-path="url(#p628d4b1595)" d="M 0 0 
z
" style="fill:#e377c2;"/>
   </g>
   <g id="patch_213">
    <path clip-path="url(#p628d4b1595)" d="M 0 0 
z
" style="fill:#e377c2;"/>
   </g>
   <g id="patch_214">
    <path clip-path="url(#p628d4b1595)" d="M 0 0 
z
" style="fill:#e377c2;"/>
   </g>
   <g id="patch_215">
    <path clip-path="url(#p628d4b1595)" d="M 0 0 
z
" style="fill:#e377c2;"/>
   </g>
   <g id="patch_216">
    <path clip-path="url(#p628d4b1595)" d="M 0 0 
z
" style="fill:#e377c2;"/>
   </g>
   <g id="patch_217">
    <path clip-path="url(#p628d4b1595)" d="M 0 0 
z
" style="fill:#e377c2;"/>
   </g>
   <g id="patch_218">
    <path clip-path="url(#p628d4b1595)" d="M 0 0 
z
" style="fill:#e377c2;"/>
   </g>
   <g id="patch_219">
    <path clip-path="url(#p628d4b1595)" d="M 0 0 
z
" style="fill:#e377c2;"/>
   </g>
   <g id="patch_220">
    <path clip-path="url(#p628d4b1595)" d="M 0 0 
z
" style="fill:#e377c2;"/>
   </g>
   <g id="patch_221">
    <path clip-path="url(#p628d4b1595)" d="M 0 0 
z
" style="fill:#e377c2;"/>
   </g>
   <g id="patch_222">
    <path clip-path="url(#p628d4b1595)" d="M 0 0 
z
" style="fill:#e377c2;"/>
   </g>
   <g id="patch_223">
    <path clip-path="url(#p628d4b1595)" d="M 0 0 
z
" style="fill:#e377c2;"/>
   </g>
   <g id="patch_224">
    <path clip-path="url(#p628d4b1595)" d="M 0 0 
z
" style="fill:#e377c2;"/>
   </g>
   <g id="patch_225">
    <path clip-path="url(#p628d4b1595)" d="M 0 0 
z
" style="fill:#e377c2;"/>
   </g>
   <g id="patch_226">
    <path clip-path="url(#p628d4b1595)" d="M 0 0 
z
" style="fill:#e377c2;"/>
   </g>
   <g id="patch_227">
    <path clip-path="url(#p628d4b1595)" d="M 0 0 
z
" style="fill:#7f7f7f;"/>
   </g>
   <g id="patch_228">
    <path clip-path="url(#p628d4b1595)" d="M 0 0 
z
" style="fill:#7f7f7f;"/>
   </g>
   <g id="patch_229">
    <path clip-path="url(#p628d4b1595)" d="M 0 0 
z
" style="fill:#7f7f7f;"/>
   </g>
   <g id="patch_230">
    <path clip-path="url(#p628d4b1595)" d="M 0 0 
z
" style="fill:#7f7f7f;"/>
   </g>
   <g id="patch_231">
    <path clip-path="url(#p628d4b1595)" d="M 0 0 
z
" style="fill:#7f7f7f;"/>
   </g>
   <g id="patch_232">
    <path clip-path="url(#p628d4b1595)" d="M 0 0 
z
" style="fill:#7f7f7f;"/>
   </g>
   <g id="patch_233">
    <path clip-path="url(#p628d4b1595)" d="M 0 0 
z
" style="fill:#7f7f7f;"/>
   </g>
   <g id="patch_234">
    <path clip-path="url(#p628d4b1595)" d="M 0 0 
z
" style="fill:#7f7f7f;"/>
   </g>
   <g id="patch_235">
    <path clip-path="url(#p628d4b1595)" d="M 0 0 
z
" style="fill:#7f7f7f;"/>
   </g>
   <g id="patch_236">
    <path clip-path="url(#p628d4b1595)" d="M 0 0 
z
" style="fill:#7f7f7f;"/>
   </g>
   <g id="patch_237">
    <path clip-path="url(#p628d4b1595)" d="M 0 0 
z
" style="fill:#7f7f7f;"/>
   </g>
   <g id="patch_238">
    <path clip-path="url(#p628d4b1595)" d="M 0 0 
z
" style="fill:#7f7f7f;"/>
   </g>
   <g id="patch_239">
    <path clip-path="url(#p628d4b1595)" d="M 0 0 
z
" style="fill:#7f7f7f;"/>
   </g>
   <g id="patch_240">
    <path clip-path="url(#p628d4b1595)" d="M 0 0 
z
" style="fill:#7f7f7f;"/>
   </g>
   <g id="patch_241">
    <path clip-path="url(#p628d4b1595)" d="M 0 0 
z
" style="fill:#7f7f7f;"/>
   </g>
   <g id="patch_242">
    <path clip-path="url(#p628d4b1595)" d="M 0 0 
z
" style="fill:#7f7f7f;"/>
   </g>
   <g id="patch_243">
    <path clip-path="url(#p628d4b1595)" d="M 0 0 
z
" style="fill:#7f7f7f;"/>
   </g>
   <g id="patch_244">
    <path clip-path="url(#p628d4b1595)" d="M 0 0 
z
" style="fill:#7f7f7f;"/>
   </g>
   <g id="patch_245">
    <path clip-path="url(#p628d4b1595)" d="M 0 0 
z
" style="fill:#7f7f7f;"/>
   </g>
   <g id="patch_246">
    <path clip-path="url(#p628d4b1595)" d="M 0 0 
z
" style="fill:#7f7f7f;"/>
   </g>
   <g id="patch_247">
    <path clip-path="url(#p628d4b1595)" d="M 0 0 
z
" style="fill:#7f7f7f;"/>
   </g>
   <g id="patch_248">
    <path clip-path="url(#p628d4b1595)" d="M 0 0 
z
" style="fill:#7f7f7f;"/>
   </g>
   <g id="patch_249">
    <path clip-path="url(#p628d4b1595)" d="M 0 0 
z
" style="fill:#7f7f7f;"/>
   </g>
   <g id="patch_250">
    <path clip-path="url(#p628d4b1595)" d="M 0 0 
z
" style="fill:#7f7f7f;"/>
   </g>
   <g id="patch_251">
    <path clip-path="url(#p628d4b1595)" d="M 0 0 
z
" style="fill:#7f7f7f;"/>
   </g>
   <g id="patch_252">
    <path clip-path="url(#p628d4b1595)" d="M 0 0 
z
" style="fill:#7f7f7f;"/>
   </g>
   <g id="patch_253">
    <path clip-path="url(#p628d4b1595)" d="M 0 0 
z
" style="fill:#7f7f7f;"/>
   </g>
   <g id="patch_254">
    <path clip-path="url(#p628d4b1595)" d="M 0 0 
z
" style="fill:#7f7f7f;"/>
   </g>
   <g id="patch_255">
    <path clip-path="url(#p628d4b1595)" d="M 0 0 
z
" style="fill:#7f7f7f;"/>
   </g>
   <g id="patch_256">
    <path clip-path="url(#p628d4b1595)" d="M 0 0 
z
" style="fill:#7f7f7f;"/>
   </g>
   <g id="patch_257">
    <path clip-path="url(#p628d4b1595)" d="M 0 0 
z
" style="fill:#7f7f7f;"/>
   </g>
   <g id="patch_258">
    <path clip-path="url(#p628d4b1595)" d="M 0 0 
z
" style="fill:#7f7f7f;"/>
   </g>
   <g id="matplotlib.axis_1">
    <g id="xtick_1">
     <g id="line2d_1">
      <path clip-path="url(#p628d4b1595)" d="M 79.641453 576.718125 
L 79.641453 22.318125 
" style="fill:none;stroke:#b0b0b0;stroke-linecap:square;stroke-width:0.8;"/>
     </g>
     <g id="line2d_2">
      <defs>
       <path d="M 0 0 
L 0 3.5 
" id="m55e1a5423b" style="stroke:#000000;stroke-width:0.8;"/>
      </defs>
      <g>
       <use style="stroke:#000000;stroke-width:0.8;" x="79.641453" xlink:href="#m55e1a5423b" y="576.718125"/>
      </g>
     </g>
     <g id="text_1">
      <!-- 0 -->
      <g transform="translate(76.460203 591.316563)scale(0.1 -0.1)">
       <defs>
        <path d="M 31.78125 66.40625 
Q 24.171875 66.40625 20.328125 58.90625 
Q 16.5 51.421875 16.5 36.375 
Q 16.5 21.390625 20.328125 13.890625 
Q 24.171875 6.390625 31.78125 6.390625 
Q 39.453125 6.390625 43.28125 13.890625 
Q 47.125 21.390625 47.125 36.375 
Q 47.125 51.421875 43.28125 58.90625 
Q 39.453125 66.40625 31.78125 66.40625 
z
M 31.78125 74.21875 
Q 44.046875 74.21875 50.515625 64.515625 
Q 56.984375 54.828125 56.984375 36.375 
Q 56.984375 17.96875 50.515625 8.265625 
Q 44.046875 -1.421875 31.78125 -1.421875 
Q 19.53125 -1.421875 13.0625 8.265625 
Q 6.59375 17.96875 6.59375 36.375 
Q 6.59375 54.828125 13.0625 64.515625 
Q 19.53125 74.21875 31.78125 74.21875 
z
" id="DejaVuSans-48"/>
       </defs>
       <use xlink:href="#DejaVuSans-48"/>
      </g>
     </g>
    </g>
    <g id="xtick_2">
     <g id="line2d_3">
      <path clip-path="url(#p628d4b1595)" d="M 234.645985 576.718125 
L 234.645985 22.318125 
" style="fill:none;stroke:#b0b0b0;stroke-linecap:square;stroke-width:0.8;"/>
     </g>
     <g id="line2d_4">
      <g>
       <use style="stroke:#000000;stroke-width:0.8;" x="234.645985" xlink:href="#m55e1a5423b" y="576.718125"/>
      </g>
     </g>
     <g id="text_2">
      <!-- 5 -->
      <g transform="translate(231.464735 591.316563)scale(0.1 -0.1)">
       <defs>
        <path d="M 10.796875 72.90625 
L 49.515625 72.90625 
L 49.515625 64.59375 
L 19.828125 64.59375 
L 19.828125 46.734375 
Q 21.96875 47.46875 24.109375 47.828125 
Q 26.265625 48.1875 28.421875 48.1875 
Q 40.625 48.1875 47.75 41.5 
Q 54.890625 34.8125 54.890625 23.390625 
Q 54.890625 11.625 47.5625 5.09375 
Q 40.234375 -1.421875 26.90625 -1.421875 
Q 22.3125 -1.421875 17.546875 -0.640625 
Q 12.796875 0.140625 7.71875 1.703125 
L 7.71875 11.625 
Q 12.109375 9.234375 16.796875 8.0625 
Q 21.484375 6.890625 26.703125 6.890625 
Q 35.15625 6.890625 40.078125 11.328125 
Q 45.015625 15.765625 45.015625 23.390625 
Q 45.015625 31 40.078125 35.4375 
Q 35.15625 39.890625 26.703125 39.890625 
Q 22.75 39.890625 18.8125 39.015625 
Q 14.890625 38.140625 10.796875 36.28125 
z
" id="DejaVuSans-53"/>
       </defs>
       <use xlink:href="#DejaVuSans-53"/>
      </g>
     </g>
    </g>
    <g id="xtick_3">
     <g id="line2d_5">
      <path clip-path="url(#p628d4b1595)" d="M 389.650517 576.718125 
L 389.650517 22.318125 
" style="fill:none;stroke:#b0b0b0;stroke-linecap:square;stroke-width:0.8;"/>
     </g>
     <g id="line2d_6">
      <g>
       <use style="stroke:#000000;stroke-width:0.8;" x="389.650517" xlink:href="#m55e1a5423b" y="576.718125"/>
      </g>
     </g>
     <g id="text_3">
      <!-- 10 -->
      <g transform="translate(383.288017 591.316563)scale(0.1 -0.1)">
       <defs>
        <path d="M 12.40625 8.296875 
L 28.515625 8.296875 
L 28.515625 63.921875 
L 10.984375 60.40625 
L 10.984375 69.390625 
L 28.421875 72.90625 
L 38.28125 72.90625 
L 38.28125 8.296875 
L 54.390625 8.296875 
L 54.390625 0 
L 12.40625 0 
z
" id="DejaVuSans-49"/>
       </defs>
       <use xlink:href="#DejaVuSans-49"/>
       <use x="63.623047" xlink:href="#DejaVuSans-48"/>
      </g>
     </g>
    </g>
    <g id="xtick_4">
     <g id="line2d_7">
      <path clip-path="url(#p628d4b1595)" d="M 544.655049 576.718125 
L 544.655049 22.318125 
" style="fill:none;stroke:#b0b0b0;stroke-linecap:square;stroke-width:0.8;"/>
     </g>
     <g id="line2d_8">
      <g>
       <use style="stroke:#000000;stroke-width:0.8;" x="544.655049" xlink:href="#m55e1a5423b" y="576.718125"/>
      </g>
     </g>
     <g id="text_4">
      <!-- 15 -->
      <g transform="translate(538.292549 591.316563)scale(0.1 -0.1)">
       <use xlink:href="#DejaVuSans-49"/>
       <use x="63.623047" xlink:href="#DejaVuSans-53"/>
      </g>
     </g>
    </g>
    <g id="xtick_5">
     <g id="line2d_9">
      <path clip-path="url(#p628d4b1595)" d="M 699.659582 576.718125 
L 699.659582 22.318125 
" style="fill:none;stroke:#b0b0b0;stroke-linecap:square;stroke-width:0.8;"/>
     </g>
     <g id="line2d_10">
      <g>
       <use style="stroke:#000000;stroke-width:0.8;" x="699.659582" xlink:href="#m55e1a5423b" y="576.718125"/>
      </g>
     </g>
     <g id="text_5">
      <!-- 20 -->
      <g transform="translate(693.297082 591.316563)scale(0.1 -0.1)">
       <defs>
        <path d="M 19.1875 8.296875 
L 53.609375 8.296875 
L 53.609375 0 
L 7.328125 0 
L 7.328125 8.296875 
Q 12.9375 14.109375 22.625 23.890625 
Q 32.328125 33.6875 34.8125 36.53125 
Q 39.546875 41.84375 41.421875 45.53125 
Q 43.3125 49.21875 43.3125 52.78125 
Q 43.3125 58.59375 39.234375 62.25 
Q 35.15625 65.921875 28.609375 65.921875 
Q 23.96875 65.921875 18.8125 64.3125 
Q 13.671875 62.703125 7.8125 59.421875 
L 7.8125 69.390625 
Q 13.765625 71.78125 18.9375 73 
Q 24.125 74.21875 28.421875 74.21875 
Q 39.75 74.21875 46.484375 68.546875 
Q 53.21875 62.890625 53.21875 53.421875 
Q 53.21875 48.921875 51.53125 44.890625 
Q 49.859375 40.875 45.40625 35.40625 
Q 44.1875 33.984375 37.640625 27.21875 
Q 31.109375 20.453125 19.1875 8.296875 
z
" id="DejaVuSans-50"/>
       </defs>
       <use xlink:href="#DejaVuSans-50"/>
       <use x="63.623047" xlink:href="#DejaVuSans-48"/>
      </g>
     </g>
    </g>
    <g id="xtick_6">
     <g id="line2d_11">
      <path clip-path="url(#p628d4b1595)" d="M 854.664114 576.718125 
L 854.664114 22.318125 
" style="fill:none;stroke:#b0b0b0;stroke-linecap:square;stroke-width:0.8;"/>
     </g>
     <g id="line2d_12">
      <g>
       <use style="stroke:#000000;stroke-width:0.8;" x="854.664114" xlink:href="#m55e1a5423b" y="576.718125"/>
      </g>
     </g>
     <g id="text_6">
      <!-- 25 -->
      <g transform="translate(848.301614 591.316563)scale(0.1 -0.1)">
       <use xlink:href="#DejaVuSans-50"/>
       <use x="63.623047" xlink:href="#DejaVuSans-53"/>
      </g>
     </g>
    </g>
    <g id="xtick_7">
     <g id="line2d_13">
      <path clip-path="url(#p628d4b1595)" d="M 1009.668646 576.718125 
L 1009.668646 22.318125 
" style="fill:none;stroke:#b0b0b0;stroke-linecap:square;stroke-width:0.8;"/>
     </g>
     <g id="line2d_14">
      <g>
       <use style="stroke:#000000;stroke-width:0.8;" x="1009.668646" xlink:href="#m55e1a5423b" y="576.718125"/>
      </g>
     </g>
     <g id="text_7">
      <!-- 30 -->
      <g transform="translate(1003.306146 591.316563)scale(0.1 -0.1)">
       <defs>
        <path d="M 40.578125 39.3125 
Q 47.65625 37.796875 51.625 33 
Q 55.609375 28.21875 55.609375 21.1875 
Q 55.609375 10.40625 48.1875 4.484375 
Q 40.765625 -1.421875 27.09375 -1.421875 
Q 22.515625 -1.421875 17.65625 -0.515625 
Q 12.796875 0.390625 7.625 2.203125 
L 7.625 11.71875 
Q 11.71875 9.328125 16.59375 8.109375 
Q 21.484375 6.890625 26.8125 6.890625 
Q 36.078125 6.890625 40.9375 10.546875 
Q 45.796875 14.203125 45.796875 21.1875 
Q 45.796875 27.640625 41.28125 31.265625 
Q 36.765625 34.90625 28.71875 34.90625 
L 20.21875 34.90625 
L 20.21875 43.015625 
L 29.109375 43.015625 
Q 36.375 43.015625 40.234375 45.921875 
Q 44.09375 48.828125 44.09375 54.296875 
Q 44.09375 59.90625 40.109375 62.90625 
Q 36.140625 65.921875 28.71875 65.921875 
Q 24.65625 65.921875 20.015625 65.03125 
Q 15.375 64.15625 9.8125 62.3125 
L 9.8125 71.09375 
Q 15.4375 72.65625 20.34375 73.4375 
Q 25.25 74.21875 29.59375 74.21875 
Q 40.828125 74.21875 47.359375 69.109375 
Q 53.90625 64.015625 53.90625 55.328125 
Q 53.90625 49.265625 50.4375 45.09375 
Q 46.96875 40.921875 40.578125 39.3125 
z
" id="DejaVuSans-51"/>
       </defs>
       <use xlink:href="#DejaVuSans-51"/>
       <use x="63.623047" xlink:href="#DejaVuSans-48"/>
      </g>
     </g>
    </g>
    <g id="xtick_8">
     <g id="line2d_15">
      <defs>
       <path d="M 0 0 
L 0 3 
" id="mea02556b96" style="stroke:#000000;stroke-width:0.6;"/>
      </defs>
      <g>
       <use style="stroke:#000000;stroke-width:0.6;" x="48.640546" xlink:href="#mea02556b96" y="576.718125"/>
      </g>
     </g>
    </g>
    <g id="xtick_9">
     <g id="line2d_16">
      <g>
       <use style="stroke:#000000;stroke-width:0.6;" x="110.642359" xlink:href="#mea02556b96" y="576.718125"/>
      </g>
     </g>
    </g>
    <g id="xtick_10">
     <g id="line2d_17">
      <g>
       <use style="stroke:#000000;stroke-width:0.6;" x="141.643265" xlink:href="#mea02556b96" y="576.718125"/>
      </g>
     </g>
    </g>
    <g id="xtick_11">
     <g id="line2d_18">
      <g>
       <use style="stroke:#000000;stroke-width:0.6;" x="172.644172" xlink:href="#mea02556b96" y="576.718125"/>
      </g>
     </g>
    </g>
    <g id="xtick_12">
     <g id="line2d_19">
      <g>
       <use style="stroke:#000000;stroke-width:0.6;" x="203.645078" xlink:href="#mea02556b96" y="576.718125"/>
      </g>
     </g>
    </g>
    <g id="xtick_13">
     <g id="line2d_20">
      <g>
       <use style="stroke:#000000;stroke-width:0.6;" x="265.646891" xlink:href="#mea02556b96" y="576.718125"/>
      </g>
     </g>
    </g>
    <g id="xtick_14">
     <g id="line2d_21">
      <g>
       <use style="stroke:#000000;stroke-width:0.6;" x="296.647798" xlink:href="#mea02556b96" y="576.718125"/>
      </g>
     </g>
    </g>
    <g id="xtick_15">
     <g id="line2d_22">
      <g>
       <use style="stroke:#000000;stroke-width:0.6;" x="327.648704" xlink:href="#mea02556b96" y="576.718125"/>
      </g>
     </g>
    </g>
    <g id="xtick_16">
     <g id="line2d_23">
      <g>
       <use style="stroke:#000000;stroke-width:0.6;" x="358.649611" xlink:href="#mea02556b96" y="576.718125"/>
      </g>
     </g>
    </g>
    <g id="xtick_17">
     <g id="line2d_24">
      <g>
       <use style="stroke:#000000;stroke-width:0.6;" x="420.651424" xlink:href="#mea02556b96" y="576.718125"/>
      </g>
     </g>
    </g>
    <g id="xtick_18">
     <g id="line2d_25">
      <g>
       <use style="stroke:#000000;stroke-width:0.6;" x="451.65233" xlink:href="#mea02556b96" y="576.718125"/>
      </g>
     </g>
    </g>
    <g id="xtick_19">
     <g id="line2d_26">
      <g>
       <use style="stroke:#000000;stroke-width:0.6;" x="482.653236" xlink:href="#mea02556b96" y="576.718125"/>
      </g>
     </g>
    </g>
    <g id="xtick_20">
     <g id="line2d_27">
      <g>
       <use style="stroke:#000000;stroke-width:0.6;" x="513.654143" xlink:href="#mea02556b96" y="576.718125"/>
      </g>
     </g>
    </g>
    <g id="xtick_21">
     <g id="line2d_28">
      <g>
       <use style="stroke:#000000;stroke-width:0.6;" x="575.655956" xlink:href="#mea02556b96" y="576.718125"/>
      </g>
     </g>
    </g>
    <g id="xtick_22">
     <g id="line2d_29">
      <g>
       <use style="stroke:#000000;stroke-width:0.6;" x="606.656862" xlink:href="#mea02556b96" y="576.718125"/>
      </g>
     </g>
    </g>
    <g id="xtick_23">
     <g id="line2d_30">
      <g>
       <use style="stroke:#000000;stroke-width:0.6;" x="637.657769" xlink:href="#mea02556b96" y="576.718125"/>
      </g>
     </g>
    </g>
    <g id="xtick_24">
     <g id="line2d_31">
      <g>
       <use style="stroke:#000000;stroke-width:0.6;" x="668.658675" xlink:href="#mea02556b96" y="576.718125"/>
      </g>
     </g>
    </g>
    <g id="xtick_25">
     <g id="line2d_32">
      <g>
       <use style="stroke:#000000;stroke-width:0.6;" x="730.660488" xlink:href="#mea02556b96" y="576.718125"/>
      </g>
     </g>
    </g>
    <g id="xtick_26">
     <g id="line2d_33">
      <g>
       <use style="stroke:#000000;stroke-width:0.6;" x="761.661395" xlink:href="#mea02556b96" y="576.718125"/>
      </g>
     </g>
    </g>
    <g id="xtick_27">
     <g id="line2d_34">
      <g>
       <use style="stroke:#000000;stroke-width:0.6;" x="792.662301" xlink:href="#mea02556b96" y="576.718125"/>
      </g>
     </g>
    </g>
    <g id="xtick_28">
     <g id="line2d_35">
      <g>
       <use style="stroke:#000000;stroke-width:0.6;" x="823.663208" xlink:href="#mea02556b96" y="576.718125"/>
      </g>
     </g>
    </g>
    <g id="xtick_29">
     <g id="line2d_36">
      <g>
       <use style="stroke:#000000;stroke-width:0.6;" x="885.66502" xlink:href="#mea02556b96" y="576.718125"/>
      </g>
     </g>
    </g>
    <g id="xtick_30">
     <g id="line2d_37">
      <g>
       <use style="stroke:#000000;stroke-width:0.6;" x="916.665927" xlink:href="#mea02556b96" y="576.718125"/>
      </g>
     </g>
    </g>
    <g id="xtick_31">
     <g id="line2d_38">
      <g>
       <use style="stroke:#000000;stroke-width:0.6;" x="947.666833" xlink:href="#mea02556b96" y="576.718125"/>
      </g>
     </g>
    </g>
    <g id="xtick_32">
     <g id="line2d_39">
      <g>
       <use style="stroke:#000000;stroke-width:0.6;" x="978.66774" xlink:href="#mea02556b96" y="576.718125"/>
      </g>
     </g>
    </g>
    <g id="xtick_33">
     <g id="line2d_40">
      <g>
       <use style="stroke:#000000;stroke-width:0.6;" x="1040.669553" xlink:href="#mea02556b96" y="576.718125"/>
      </g>
     </g>
    </g>
    <g id="xtick_34">
     <g id="line2d_41">
      <g>
       <use style="stroke:#000000;stroke-width:0.6;" x="1071.670459" xlink:href="#mea02556b96" y="576.718125"/>
      </g>
     </g>
    </g>
    <g id="text_8">
     <!-- Channels -->
     <g transform="translate(541.208594 604.994688)scale(0.1 -0.1)">
      <defs>
       <path d="M 64.40625 67.28125 
L 64.40625 56.890625 
Q 59.421875 61.53125 53.78125 63.8125 
Q 48.140625 66.109375 41.796875 66.109375 
Q 29.296875 66.109375 22.65625 58.46875 
Q 16.015625 50.828125 16.015625 36.375 
Q 16.015625 21.96875 22.65625 14.328125 
Q 29.296875 6.6875 41.796875 6.6875 
Q 48.140625 6.6875 53.78125 8.984375 
Q 59.421875 11.28125 64.40625 15.921875 
L 64.40625 5.609375 
Q 59.234375 2.09375 53.4375 0.328125 
Q 47.65625 -1.421875 41.21875 -1.421875 
Q 24.65625 -1.421875 15.125 8.703125 
Q 5.609375 18.84375 5.609375 36.375 
Q 5.609375 53.953125 15.125 64.078125 
Q 24.65625 74.21875 41.21875 74.21875 
Q 47.75 74.21875 53.53125 72.484375 
Q 59.328125 70.75 64.40625 67.28125 
z
" id="DejaVuSans-67"/>
       <path d="M 54.890625 33.015625 
L 54.890625 0 
L 45.90625 0 
L 45.90625 32.71875 
Q 45.90625 40.484375 42.875 44.328125 
Q 39.84375 48.1875 33.796875 48.1875 
Q 26.515625 48.1875 22.3125 43.546875 
Q 18.109375 38.921875 18.109375 30.90625 
L 18.109375 0 
L 9.078125 0 
L 9.078125 75.984375 
L 18.109375 75.984375 
L 18.109375 46.1875 
Q 21.34375 51.125 25.703125 53.5625 
Q 30.078125 56 35.796875 56 
Q 45.21875 56 50.046875 50.171875 
Q 54.890625 44.34375 54.890625 33.015625 
z
" id="DejaVuSans-104"/>
       <path d="M 34.28125 27.484375 
Q 23.390625 27.484375 19.1875 25 
Q 14.984375 22.515625 14.984375 16.5 
Q 14.984375 11.71875 18.140625 8.90625 
Q 21.296875 6.109375 26.703125 6.109375 
Q 34.1875 6.109375 38.703125 11.40625 
Q 43.21875 16.703125 43.21875 25.484375 
L 43.21875 27.484375 
z
M 52.203125 31.203125 
L 52.203125 0 
L 43.21875 0 
L 43.21875 8.296875 
Q 40.140625 3.328125 35.546875 0.953125 
Q 30.953125 -1.421875 24.3125 -1.421875 
Q 15.921875 -1.421875 10.953125 3.296875 
Q 6 8.015625 6 15.921875 
Q 6 25.140625 12.171875 29.828125 
Q 18.359375 34.515625 30.609375 34.515625 
L 43.21875 34.515625 
L 43.21875 35.40625 
Q 43.21875 41.609375 39.140625 45 
Q 35.0625 48.390625 27.6875 48.390625 
Q 23 48.390625 18.546875 47.265625 
Q 14.109375 46.140625 10.015625 43.890625 
L 10.015625 52.203125 
Q 14.9375 54.109375 19.578125 55.046875 
Q 24.21875 56 28.609375 56 
Q 40.484375 56 46.34375 49.84375 
Q 52.203125 43.703125 52.203125 31.203125 
z
" id="DejaVuSans-97"/>
       <path d="M 54.890625 33.015625 
L 54.890625 0 
L 45.90625 0 
L 45.90625 32.71875 
Q 45.90625 40.484375 42.875 44.328125 
Q 39.84375 48.1875 33.796875 48.1875 
Q 26.515625 48.1875 22.3125 43.546875 
Q 18.109375 38.921875 18.109375 30.90625 
L 18.109375 0 
L 9.078125 0 
L 9.078125 54.6875 
L 18.109375 54.6875 
L 18.109375 46.1875 
Q 21.34375 51.125 25.703125 53.5625 
Q 30.078125 56 35.796875 56 
Q 45.21875 56 50.046875 50.171875 
Q 54.890625 44.34375 54.890625 33.015625 
z
" id="DejaVuSans-110"/>
       <path d="M 56.203125 29.59375 
L 56.203125 25.203125 
L 14.890625 25.203125 
Q 15.484375 15.921875 20.484375 11.0625 
Q 25.484375 6.203125 34.421875 6.203125 
Q 39.59375 6.203125 44.453125 7.46875 
Q 49.3125 8.734375 54.109375 11.28125 
L 54.109375 2.78125 
Q 49.265625 0.734375 44.1875 -0.34375 
Q 39.109375 -1.421875 33.890625 -1.421875 
Q 20.796875 -1.421875 13.15625 6.1875 
Q 5.515625 13.8125 5.515625 26.8125 
Q 5.515625 40.234375 12.765625 48.109375 
Q 20.015625 56 32.328125 56 
Q 43.359375 56 49.78125 48.890625 
Q 56.203125 41.796875 56.203125 29.59375 
z
M 47.21875 32.234375 
Q 47.125 39.59375 43.09375 43.984375 
Q 39.0625 48.390625 32.421875 48.390625 
Q 24.90625 48.390625 20.390625 44.140625 
Q 15.875 39.890625 15.1875 32.171875 
z
" id="DejaVuSans-101"/>
       <path d="M 9.421875 75.984375 
L 18.40625 75.984375 
L 18.40625 0 
L 9.421875 0 
z
" id="DejaVuSans-108"/>
       <path d="M 44.28125 53.078125 
L 44.28125 44.578125 
Q 40.484375 46.53125 36.375 47.5 
Q 32.28125 48.484375 27.875 48.484375 
Q 21.1875 48.484375 17.84375 46.4375 
Q 14.5 44.390625 14.5 40.28125 
Q 14.5 37.15625 16.890625 35.375 
Q 19.28125 33.59375 26.515625 31.984375 
L 29.59375 31.296875 
Q 39.15625 29.25 43.1875 25.515625 
Q 47.21875 21.78125 47.21875 15.09375 
Q 47.21875 7.46875 41.1875 3.015625 
Q 35.15625 -1.421875 24.609375 -1.421875 
Q 20.21875 -1.421875 15.453125 -0.5625 
Q 10.6875 0.296875 5.421875 2 
L 5.421875 11.28125 
Q 10.40625 8.6875 15.234375 7.390625 
Q 20.0625 6.109375 24.8125 6.109375 
Q 31.15625 6.109375 34.5625 8.28125 
Q 37.984375 10.453125 37.984375 14.40625 
Q 37.984375 18.0625 35.515625 20.015625 
Q 33.0625 21.96875 24.703125 23.78125 
L 21.578125 24.515625 
Q 13.234375 26.265625 9.515625 29.90625 
Q 5.8125 33.546875 5.8125 39.890625 
Q 5.8125 47.609375 11.28125 51.796875 
Q 16.75 56 26.8125 56 
Q 31.78125 56 36.171875 55.265625 
Q 40.578125 54.546875 44.28125 53.078125 
z
" id="DejaVuSans-115"/>
      </defs>
      <use xlink:href="#DejaVuSans-67"/>
      <use x="69.824219" xlink:href="#DejaVuSans-104"/>
      <use x="133.203125" xlink:href="#DejaVuSans-97"/>
      <use x="194.482422" xlink:href="#DejaVuSans-110"/>
      <use x="257.861328" xlink:href="#DejaVuSans-110"/>
      <use x="321.240234" xlink:href="#DejaVuSans-101"/>
      <use x="382.763672" xlink:href="#DejaVuSans-108"/>
      <use x="410.546875" xlink:href="#DejaVuSans-115"/>
     </g>
    </g>
   </g>
   <g id="matplotlib.axis_2">
    <g id="ytick_1">
     <g id="line2d_42">
      <path clip-path="url(#p628d4b1595)" d="M 34.240625 576.718125 
L 1094.440625 576.718125 
" style="fill:none;stroke:#b0b0b0;stroke-linecap:square;stroke-width:0.8;"/>
     </g>
     <g id="line2d_43">
      <defs>
       <path d="M 0 0 
L -3.5 0 
" id="m3dd4b2ea83" style="stroke:#000000;stroke-width:0.8;"/>
      </defs>
      <g>
       <use style="stroke:#000000;stroke-width:0.8;" x="34.240625" xlink:href="#m3dd4b2ea83" y="576.718125"/>
      </g>
     </g>
     <g id="text_9">
      <!-- 0 -->
      <g transform="translate(20.878125 580.517344)scale(0.1 -0.1)">
       <use xlink:href="#DejaVuSans-48"/>
      </g>
     </g>
    </g>
    <g id="ytick_2">
     <g id="line2d_44">
      <path clip-path="url(#p628d4b1595)" d="M 34.240625 457.192474 
L 1094.440625 457.192474 
" style="fill:none;stroke:#b0b0b0;stroke-linecap:square;stroke-width:0.8;"/>
     </g>
     <g id="line2d_45">
      <g>
       <use style="stroke:#000000;stroke-width:0.8;" x="34.240625" xlink:href="#m3dd4b2ea83" y="457.192474"/>
      </g>
     </g>
     <g id="text_10">
      <!-- 2 -->
      <g transform="translate(20.878125 460.991693)scale(0.1 -0.1)">
       <use xlink:href="#DejaVuSans-50"/>
      </g>
     </g>
    </g>
    <g id="ytick_3">
     <g id="line2d_46">
      <path clip-path="url(#p628d4b1595)" d="M 34.240625 337.666823 
L 1094.440625 337.666823 
" style="fill:none;stroke:#b0b0b0;stroke-linecap:square;stroke-width:0.8;"/>
     </g>
     <g id="line2d_47">
      <g>
       <use style="stroke:#000000;stroke-width:0.8;" x="34.240625" xlink:href="#m3dd4b2ea83" y="337.666823"/>
      </g>
     </g>
     <g id="text_11">
      <!-- 4 -->
      <g transform="translate(20.878125 341.466042)scale(0.1 -0.1)">
       <defs>
        <path d="M 37.796875 64.3125 
L 12.890625 25.390625 
L 37.796875 25.390625 
z
M 35.203125 72.90625 
L 47.609375 72.90625 
L 47.609375 25.390625 
L 58.015625 25.390625 
L 58.015625 17.1875 
L 47.609375 17.1875 
L 47.609375 0 
L 37.796875 0 
L 37.796875 17.1875 
L 4.890625 17.1875 
L 4.890625 26.703125 
z
" id="DejaVuSans-52"/>
       </defs>
       <use xlink:href="#DejaVuSans-52"/>
      </g>
     </g>
    </g>
    <g id="ytick_4">
     <g id="line2d_48">
      <path clip-path="url(#p628d4b1595)" d="M 34.240625 218.141172 
L 1094.440625 218.141172 
" style="fill:none;stroke:#b0b0b0;stroke-linecap:square;stroke-width:0.8;"/>
     </g>
     <g id="line2d_49">
      <g>
       <use style="stroke:#000000;stroke-width:0.8;" x="34.240625" xlink:href="#m3dd4b2ea83" y="218.141172"/>
      </g>
     </g>
     <g id="text_12">
      <!-- 6 -->
      <g transform="translate(20.878125 221.940391)scale(0.1 -0.1)">
       <defs>
        <path d="M 33.015625 40.375 
Q 26.375 40.375 22.484375 35.828125 
Q 18.609375 31.296875 18.609375 23.390625 
Q 18.609375 15.53125 22.484375 10.953125 
Q 26.375 6.390625 33.015625 6.390625 
Q 39.65625 6.390625 43.53125 10.953125 
Q 47.40625 15.53125 47.40625 23.390625 
Q 47.40625 31.296875 43.53125 35.828125 
Q 39.65625 40.375 33.015625 40.375 
z
M 52.59375 71.296875 
L 52.59375 62.3125 
Q 48.875 64.0625 45.09375 64.984375 
Q 41.3125 65.921875 37.59375 65.921875 
Q 27.828125 65.921875 22.671875 59.328125 
Q 17.53125 52.734375 16.796875 39.40625 
Q 19.671875 43.65625 24.015625 45.921875 
Q 28.375 48.1875 33.59375 48.1875 
Q 44.578125 48.1875 50.953125 41.515625 
Q 57.328125 34.859375 57.328125 23.390625 
Q 57.328125 12.15625 50.6875 5.359375 
Q 44.046875 -1.421875 33.015625 -1.421875 
Q 20.359375 -1.421875 13.671875 8.265625 
Q 6.984375 17.96875 6.984375 36.375 
Q 6.984375 53.65625 15.1875 63.9375 
Q 23.390625 74.21875 37.203125 74.21875 
Q 40.921875 74.21875 44.703125 73.484375 
Q 48.484375 72.75 52.59375 71.296875 
z
" id="DejaVuSans-54"/>
       </defs>
       <use xlink:href="#DejaVuSans-54"/>
      </g>
     </g>
    </g>
    <g id="ytick_5">
     <g id="line2d_50">
      <path clip-path="url(#p628d4b1595)" d="M 34.240625 98.615521 
L 1094.440625 98.615521 
" style="fill:none;stroke:#b0b0b0;stroke-linecap:square;stroke-width:0.8;"/>
     </g>
     <g id="line2d_51">
      <g>
       <use style="stroke:#000000;stroke-width:0.8;" x="34.240625" xlink:href="#m3dd4b2ea83" y="98.615521"/>
      </g>
     </g>
     <g id="text_13">
      <!-- 8 -->
      <g transform="translate(20.878125 102.41474)scale(0.1 -0.1)">
       <defs>
        <path d="M 31.78125 34.625 
Q 24.75 34.625 20.71875 30.859375 
Q 16.703125 27.09375 16.703125 20.515625 
Q 16.703125 13.921875 20.71875 10.15625 
Q 24.75 6.390625 31.78125 6.390625 
Q 38.8125 6.390625 42.859375 10.171875 
Q 46.921875 13.96875 46.921875 20.515625 
Q 46.921875 27.09375 42.890625 30.859375 
Q 38.875 34.625 31.78125 34.625 
z
M 21.921875 38.8125 
Q 15.578125 40.375 12.03125 44.71875 
Q 8.5 49.078125 8.5 55.328125 
Q 8.5 64.0625 14.71875 69.140625 
Q 20.953125 74.21875 31.78125 74.21875 
Q 42.671875 74.21875 48.875 69.140625 
Q 55.078125 64.0625 55.078125 55.328125 
Q 55.078125 49.078125 51.53125 44.71875 
Q 48 40.375 41.703125 38.8125 
Q 48.828125 37.15625 52.796875 32.3125 
Q 56.78125 27.484375 56.78125 20.515625 
Q 56.78125 9.90625 50.3125 4.234375 
Q 43.84375 -1.421875 31.78125 -1.421875 
Q 19.734375 -1.421875 13.25 4.234375 
Q 6.78125 9.90625 6.78125 20.515625 
Q 6.78125 27.484375 10.78125 32.3125 
Q 14.796875 37.15625 21.921875 38.8125 
z
M 18.3125 54.390625 
Q 18.3125 48.734375 21.84375 45.5625 
Q 25.390625 42.390625 31.78125 42.390625 
Q 38.140625 42.390625 41.71875 45.5625 
Q 45.3125 48.734375 45.3125 54.390625 
Q 45.3125 60.0625 41.71875 63.234375 
Q 38.140625 66.40625 31.78125 66.40625 
Q 25.390625 66.40625 21.84375 63.234375 
Q 18.3125 60.0625 18.3125 54.390625 
z
" id="DejaVuSans-56"/>
       </defs>
       <use xlink:href="#DejaVuSans-56"/>
      </g>
     </g>
    </g>
    <g id="text_14">
     <!-- FWHM ENC [keV] -->
     <g transform="translate(14.798438 342.093906)rotate(-90)scale(0.1 -0.1)">
      <defs>
       <path d="M 9.8125 72.90625 
L 51.703125 72.90625 
L 51.703125 64.59375 
L 19.671875 64.59375 
L 19.671875 43.109375 
L 48.578125 43.109375 
L 48.578125 34.8125 
L 19.671875 34.8125 
L 19.671875 0 
L 9.8125 0 
z
" id="DejaVuSans-70"/>
       <path d="M 3.328125 72.90625 
L 13.28125 72.90625 
L 28.609375 11.28125 
L 43.890625 72.90625 
L 54.984375 72.90625 
L 70.3125 11.28125 
L 85.59375 72.90625 
L 95.609375 72.90625 
L 77.296875 0 
L 64.890625 0 
L 49.515625 63.28125 
L 33.984375 0 
L 21.578125 0 
z
" id="DejaVuSans-87"/>
       <path d="M 9.8125 72.90625 
L 19.671875 72.90625 
L 19.671875 43.015625 
L 55.515625 43.015625 
L 55.515625 72.90625 
L 65.375 72.90625 
L 65.375 0 
L 55.515625 0 
L 55.515625 34.71875 
L 19.671875 34.71875 
L 19.671875 0 
L 9.8125 0 
z
" id="DejaVuSans-72"/>
       <path d="M 9.8125 72.90625 
L 24.515625 72.90625 
L 43.109375 23.296875 
L 61.8125 72.90625 
L 76.515625 72.90625 
L 76.515625 0 
L 66.890625 0 
L 66.890625 64.015625 
L 48.09375 14.015625 
L 38.1875 14.015625 
L 19.390625 64.015625 
L 19.390625 0 
L 9.8125 0 
z
" id="DejaVuSans-77"/>
       <path id="DejaVuSans-32"/>
       <path d="M 9.8125 72.90625 
L 55.90625 72.90625 
L 55.90625 64.59375 
L 19.671875 64.59375 
L 19.671875 43.015625 
L 54.390625 43.015625 
L 54.390625 34.71875 
L 19.671875 34.71875 
L 19.671875 8.296875 
L 56.78125 8.296875 
L 56.78125 0 
L 9.8125 0 
z
" id="DejaVuSans-69"/>
       <path d="M 9.8125 72.90625 
L 23.09375 72.90625 
L 55.421875 11.921875 
L 55.421875 72.90625 
L 64.984375 72.90625 
L 64.984375 0 
L 51.703125 0 
L 19.390625 60.984375 
L 19.390625 0 
L 9.8125 0 
z
" id="DejaVuSans-78"/>
       <path d="M 8.59375 75.984375 
L 29.296875 75.984375 
L 29.296875 69 
L 17.578125 69 
L 17.578125 -6.203125 
L 29.296875 -6.203125 
L 29.296875 -13.1875 
L 8.59375 -13.1875 
z
" id="DejaVuSans-91"/>
       <path d="M 9.078125 75.984375 
L 18.109375 75.984375 
L 18.109375 31.109375 
L 44.921875 54.6875 
L 56.390625 54.6875 
L 27.390625 29.109375 
L 57.625 0 
L 45.90625 0 
L 18.109375 26.703125 
L 18.109375 0 
L 9.078125 0 
z
" id="DejaVuSans-107"/>
       <path d="M 28.609375 0 
L 0.78125 72.90625 
L 11.078125 72.90625 
L 34.1875 11.53125 
L 57.328125 72.90625 
L 67.578125 72.90625 
L 39.796875 0 
z
" id="DejaVuSans-86"/>
       <path d="M 30.421875 75.984375 
L 30.421875 -13.1875 
L 9.71875 -13.1875 
L 9.71875 -6.203125 
L 21.390625 -6.203125 
L 21.390625 69 
L 9.71875 69 
L 9.71875 75.984375 
z
" id="DejaVuSans-93"/>
      </defs>
      <use xlink:href="#DejaVuSans-70"/>
      <use x="57.519531" xlink:href="#DejaVuSans-87"/>
      <use x="156.396484" xlink:href="#DejaVuSans-72"/>
      <use x="231.591797" xlink:href="#DejaVuSans-77"/>
      <use x="317.871094" xlink:href="#DejaVuSans-32"/>
      <use x="349.658203" xlink:href="#DejaVuSans-69"/>
      <use x="412.841797" xlink:href="#DejaVuSans-78"/>
      <use x="487.646484" xlink:href="#DejaVuSans-67"/>
      <use x="557.470703" xlink:href="#DejaVuSans-32"/>
      <use x="589.257812" xlink:href="#DejaVuSans-91"/>
      <use x="628.271484" xlink:href="#DejaVuSans-107"/>
      <use x="682.556641" xlink:href="#DejaVuSans-101"/>
      <use x="744.080078" xlink:href="#DejaVuSans-86"/>
      <use x="812.488281" xlink:href="#DejaVuSans-93"/>
     </g>
    </g>
   </g>
   <g id="patch_259">
    <path d="M 34.240625 576.718125 
L 34.240625 22.318125 
" style="fill:none;stroke:#000000;stroke-linecap:square;stroke-linejoin:miter;stroke-width:0.8;"/>
   </g>
   <g id="patch_260">
    <path d="M 1094.440625 576.718125 
L 1094.440625 22.318125 
" style="fill:none;stroke:#000000;stroke-linecap:square;stroke-linejoin:miter;stroke-width:0.8;"/>
   </g>
   <g id="patch_261">
    <path d="M 34.240625 576.718125 
L 1094.440625 576.718125 
" style="fill:none;stroke:#000000;stroke-linecap:square;stroke-linejoin:miter;stroke-width:0.8;"/>
   </g>
   <g id="patch_262">
    <path d="M 34.240625 22.318125 
L 1094.440625 22.318125 
" style="fill:none;stroke:#000000;stroke-linecap:square;stroke-linejoin:miter;stroke-width:0.8;"/>
   </g>
   <g id="text_15">
    <!-- FWHM ENC [keV] (Pedestal rms / Gain with polynomial (deg=4) fit slope) -->
    <g transform="translate(346.154375 16.318125)scale(0.12 -0.12)">
     <defs>
      <path d="M 31 75.875 
Q 24.46875 64.65625 21.28125 53.65625 
Q 18.109375 42.671875 18.109375 31.390625 
Q 18.109375 20.125 21.3125 9.0625 
Q 24.515625 -2 31 -13.1875 
L 23.1875 -13.1875 
Q 15.875 -1.703125 12.234375 9.375 
Q 8.59375 20.453125 8.59375 31.390625 
Q 8.59375 42.28125 12.203125 53.3125 
Q 15.828125 64.359375 23.1875 75.875 
z
" id="DejaVuSans-40"/>
      <path d="M 19.671875 64.796875 
L 19.671875 37.40625 
L 32.078125 37.40625 
Q 38.96875 37.40625 42.71875 40.96875 
Q 46.484375 44.53125 46.484375 51.125 
Q 46.484375 57.671875 42.71875 61.234375 
Q 38.96875 64.796875 32.078125 64.796875 
z
M 9.8125 72.90625 
L 32.078125 72.90625 
Q 44.34375 72.90625 50.609375 67.359375 
Q 56.890625 61.8125 56.890625 51.125 
Q 56.890625 40.328125 50.609375 34.8125 
Q 44.34375 29.296875 32.078125 29.296875 
L 19.671875 29.296875 
L 19.671875 0 
L 9.8125 0 
z
" id="DejaVuSans-80"/>
      <path d="M 45.40625 46.390625 
L 45.40625 75.984375 
L 54.390625 75.984375 
L 54.390625 0 
L 45.40625 0 
L 45.40625 8.203125 
Q 42.578125 3.328125 38.25 0.953125 
Q 33.9375 -1.421875 27.875 -1.421875 
Q 17.96875 -1.421875 11.734375 6.484375 
Q 5.515625 14.40625 5.515625 27.296875 
Q 5.515625 40.1875 11.734375 48.09375 
Q 17.96875 56 27.875 56 
Q 33.9375 56 38.25 53.625 
Q 42.578125 51.265625 45.40625 46.390625 
z
M 14.796875 27.296875 
Q 14.796875 17.390625 18.875 11.75 
Q 22.953125 6.109375 30.078125 6.109375 
Q 37.203125 6.109375 41.296875 11.75 
Q 45.40625 17.390625 45.40625 27.296875 
Q 45.40625 37.203125 41.296875 42.84375 
Q 37.203125 48.484375 30.078125 48.484375 
Q 22.953125 48.484375 18.875 42.84375 
Q 14.796875 37.203125 14.796875 27.296875 
z
" id="DejaVuSans-100"/>
      <path d="M 18.3125 70.21875 
L 18.3125 54.6875 
L 36.8125 54.6875 
L 36.8125 47.703125 
L 18.3125 47.703125 
L 18.3125 18.015625 
Q 18.3125 11.328125 20.140625 9.421875 
Q 21.96875 7.515625 27.59375 7.515625 
L 36.8125 7.515625 
L 36.8125 0 
L 27.59375 0 
Q 17.1875 0 13.234375 3.875 
Q 9.28125 7.765625 9.28125 18.015625 
L 9.28125 47.703125 
L 2.6875 47.703125 
L 2.6875 54.6875 
L 9.28125 54.6875 
L 9.28125 70.21875 
z
" id="DejaVuSans-116"/>
      <path d="M 41.109375 46.296875 
Q 39.59375 47.171875 37.8125 47.578125 
Q 36.03125 48 33.890625 48 
Q 26.265625 48 22.1875 43.046875 
Q 18.109375 38.09375 18.109375 28.8125 
L 18.109375 0 
L 9.078125 0 
L 9.078125 54.6875 
L 18.109375 54.6875 
L 18.109375 46.1875 
Q 20.953125 51.171875 25.484375 53.578125 
Q 30.03125 56 36.53125 56 
Q 37.453125 56 38.578125 55.875 
Q 39.703125 55.765625 41.0625 55.515625 
z
" id="DejaVuSans-114"/>
      <path d="M 52 44.1875 
Q 55.375 50.25 60.0625 53.125 
Q 64.75 56 71.09375 56 
Q 79.640625 56 84.28125 50.015625 
Q 88.921875 44.046875 88.921875 33.015625 
L 88.921875 0 
L 79.890625 0 
L 79.890625 32.71875 
Q 79.890625 40.578125 77.09375 44.375 
Q 74.3125 48.1875 68.609375 48.1875 
Q 61.625 48.1875 57.5625 43.546875 
Q 53.515625 38.921875 53.515625 30.90625 
L 53.515625 0 
L 44.484375 0 
L 44.484375 32.71875 
Q 44.484375 40.625 41.703125 44.40625 
Q 38.921875 48.1875 33.109375 48.1875 
Q 26.21875 48.1875 22.15625 43.53125 
Q 18.109375 38.875 18.109375 30.90625 
L 18.109375 0 
L 9.078125 0 
L 9.078125 54.6875 
L 18.109375 54.6875 
L 18.109375 46.1875 
Q 21.1875 51.21875 25.484375 53.609375 
Q 29.78125 56 35.6875 56 
Q 41.65625 56 45.828125 52.96875 
Q 50 49.953125 52 44.1875 
z
" id="DejaVuSans-109"/>
      <path d="M 25.390625 72.90625 
L 33.6875 72.90625 
L 8.296875 -9.28125 
L 0 -9.28125 
z
" id="DejaVuSans-47"/>
      <path d="M 59.515625 10.40625 
L 59.515625 29.984375 
L 43.40625 29.984375 
L 43.40625 38.09375 
L 69.28125 38.09375 
L 69.28125 6.78125 
Q 63.578125 2.734375 56.6875 0.65625 
Q 49.8125 -1.421875 42 -1.421875 
Q 24.90625 -1.421875 15.25 8.5625 
Q 5.609375 18.5625 5.609375 36.375 
Q 5.609375 54.25 15.25 64.234375 
Q 24.90625 74.21875 42 74.21875 
Q 49.125 74.21875 55.546875 72.453125 
Q 61.96875 70.703125 67.390625 67.28125 
L 67.390625 56.78125 
Q 61.921875 61.421875 55.765625 63.765625 
Q 49.609375 66.109375 42.828125 66.109375 
Q 29.4375 66.109375 22.71875 58.640625 
Q 16.015625 51.171875 16.015625 36.375 
Q 16.015625 21.625 22.71875 14.15625 
Q 29.4375 6.6875 42.828125 6.6875 
Q 48.046875 6.6875 52.140625 7.59375 
Q 56.25 8.5 59.515625 10.40625 
z
" id="DejaVuSans-71"/>
      <path d="M 9.421875 54.6875 
L 18.40625 54.6875 
L 18.40625 0 
L 9.421875 0 
z
M 9.421875 75.984375 
L 18.40625 75.984375 
L 18.40625 64.59375 
L 9.421875 64.59375 
z
" id="DejaVuSans-105"/>
      <path d="M 4.203125 54.6875 
L 13.1875 54.6875 
L 24.421875 12.015625 
L 35.59375 54.6875 
L 46.1875 54.6875 
L 57.421875 12.015625 
L 68.609375 54.6875 
L 77.59375 54.6875 
L 63.28125 0 
L 52.6875 0 
L 40.921875 44.828125 
L 29.109375 0 
L 18.5 0 
z
" id="DejaVuSans-119"/>
      <path d="M 18.109375 8.203125 
L 18.109375 -20.796875 
L 9.078125 -20.796875 
L 9.078125 54.6875 
L 18.109375 54.6875 
L 18.109375 46.390625 
Q 20.953125 51.265625 25.265625 53.625 
Q 29.59375 56 35.59375 56 
Q 45.5625 56 51.78125 48.09375 
Q 58.015625 40.1875 58.015625 27.296875 
Q 58.015625 14.40625 51.78125 6.484375 
Q 45.5625 -1.421875 35.59375 -1.421875 
Q 29.59375 -1.421875 25.265625 0.953125 
Q 20.953125 3.328125 18.109375 8.203125 
z
M 48.6875 27.296875 
Q 48.6875 37.203125 44.609375 42.84375 
Q 40.53125 48.484375 33.40625 48.484375 
Q 26.265625 48.484375 22.1875 42.84375 
Q 18.109375 37.203125 18.109375 27.296875 
Q 18.109375 17.390625 22.1875 11.75 
Q 26.265625 6.109375 33.40625 6.109375 
Q 40.53125 6.109375 44.609375 11.75 
Q 48.6875 17.390625 48.6875 27.296875 
z
" id="DejaVuSans-112"/>
      <path d="M 30.609375 48.390625 
Q 23.390625 48.390625 19.1875 42.75 
Q 14.984375 37.109375 14.984375 27.296875 
Q 14.984375 17.484375 19.15625 11.84375 
Q 23.34375 6.203125 30.609375 6.203125 
Q 37.796875 6.203125 41.984375 11.859375 
Q 46.1875 17.53125 46.1875 27.296875 
Q 46.1875 37.015625 41.984375 42.703125 
Q 37.796875 48.390625 30.609375 48.390625 
z
M 30.609375 56 
Q 42.328125 56 49.015625 48.375 
Q 55.71875 40.765625 55.71875 27.296875 
Q 55.71875 13.875 49.015625 6.21875 
Q 42.328125 -1.421875 30.609375 -1.421875 
Q 18.84375 -1.421875 12.171875 6.21875 
Q 5.515625 13.875 5.515625 27.296875 
Q 5.515625 40.765625 12.171875 48.375 
Q 18.84375 56 30.609375 56 
z
" id="DejaVuSans-111"/>
      <path d="M 32.171875 -5.078125 
Q 28.375 -14.84375 24.75 -17.8125 
Q 21.140625 -20.796875 15.09375 -20.796875 
L 7.90625 -20.796875 
L 7.90625 -13.28125 
L 13.1875 -13.28125 
Q 16.890625 -13.28125 18.9375 -11.515625 
Q 21 -9.765625 23.484375 -3.21875 
L 25.09375 0.875 
L 2.984375 54.6875 
L 12.5 54.6875 
L 29.59375 11.921875 
L 46.6875 54.6875 
L 56.203125 54.6875 
z
" id="DejaVuSans-121"/>
      <path d="M 45.40625 27.984375 
Q 45.40625 37.75 41.375 43.109375 
Q 37.359375 48.484375 30.078125 48.484375 
Q 22.859375 48.484375 18.828125 43.109375 
Q 14.796875 37.75 14.796875 27.984375 
Q 14.796875 18.265625 18.828125 12.890625 
Q 22.859375 7.515625 30.078125 7.515625 
Q 37.359375 7.515625 41.375 12.890625 
Q 45.40625 18.265625 45.40625 27.984375 
z
M 54.390625 6.78125 
Q 54.390625 -7.171875 48.1875 -13.984375 
Q 42 -20.796875 29.203125 -20.796875 
Q 24.46875 -20.796875 20.265625 -20.09375 
Q 16.0625 -19.390625 12.109375 -17.921875 
L 12.109375 -9.1875 
Q 16.0625 -11.328125 19.921875 -12.34375 
Q 23.78125 -13.375 27.78125 -13.375 
Q 36.625 -13.375 41.015625 -8.765625 
Q 45.40625 -4.15625 45.40625 5.171875 
L 45.40625 9.625 
Q 42.625 4.78125 38.28125 2.390625 
Q 33.9375 0 27.875 0 
Q 17.828125 0 11.671875 7.65625 
Q 5.515625 15.328125 5.515625 27.984375 
Q 5.515625 40.671875 11.671875 48.328125 
Q 17.828125 56 27.875 56 
Q 33.9375 56 38.28125 53.609375 
Q 42.625 51.21875 45.40625 46.390625 
L 45.40625 54.6875 
L 54.390625 54.6875 
z
" id="DejaVuSans-103"/>
      <path d="M 10.59375 45.40625 
L 73.1875 45.40625 
L 73.1875 37.203125 
L 10.59375 37.203125 
z
M 10.59375 25.484375 
L 73.1875 25.484375 
L 73.1875 17.1875 
L 10.59375 17.1875 
z
" id="DejaVuSans-61"/>
      <path d="M 8.015625 75.875 
L 15.828125 75.875 
Q 23.140625 64.359375 26.78125 53.3125 
Q 30.421875 42.28125 30.421875 31.390625 
Q 30.421875 20.453125 26.78125 9.375 
Q 23.140625 -1.703125 15.828125 -13.1875 
L 8.015625 -13.1875 
Q 14.5 -2 17.703125 9.0625 
Q 20.90625 20.125 20.90625 31.390625 
Q 20.90625 42.671875 17.703125 53.65625 
Q 14.5 64.65625 8.015625 75.875 
z
" id="DejaVuSans-41"/>
      <path d="M 37.109375 75.984375 
L 37.109375 68.5 
L 28.515625 68.5 
Q 23.6875 68.5 21.796875 66.546875 
Q 19.921875 64.59375 19.921875 59.515625 
L 19.921875 54.6875 
L 34.71875 54.6875 
L 34.71875 47.703125 
L 19.921875 47.703125 
L 19.921875 0 
L 10.890625 0 
L 10.890625 47.703125 
L 2.296875 47.703125 
L 2.296875 54.6875 
L 10.890625 54.6875 
L 10.890625 58.5 
Q 10.890625 67.625 15.140625 71.796875 
Q 19.390625 75.984375 28.609375 75.984375 
z
" id="DejaVuSans-102"/>
     </defs>
     <use xlink:href="#DejaVuSans-70"/>
     <use x="57.519531" xlink:href="#DejaVuSans-87"/>
     <use x="156.396484" xlink:href="#DejaVuSans-72"/>
     <use x="231.591797" xlink:href="#DejaVuSans-77"/>
     <use x="317.871094" xlink:href="#DejaVuSans-32"/>
     <use x="349.658203" xlink:href="#DejaVuSans-69"/>
     <use x="412.841797" xlink:href="#DejaVuSans-78"/>
     <use x="487.646484" xlink:href="#DejaVuSans-67"/>
     <use x="557.470703" xlink:href="#DejaVuSans-32"/>
     <use x="589.257812" xlink:href="#DejaVuSans-91"/>
     <use x="628.271484" xlink:href="#DejaVuSans-107"/>
     <use x="682.556641" xlink:href="#DejaVuSans-101"/>
     <use x="744.080078" xlink:href="#DejaVuSans-86"/>
     <use x="812.488281" xlink:href="#DejaVuSans-93"/>
     <use x="851.501953" xlink:href="#DejaVuSans-32"/>
     <use x="883.289062" xlink:href="#DejaVuSans-40"/>
     <use x="922.302734" xlink:href="#DejaVuSans-80"/>
     <use x="978.980469" xlink:href="#DejaVuSans-101"/>
     <use x="1040.503906" xlink:href="#DejaVuSans-100"/>
     <use x="1103.980469" xlink:href="#DejaVuSans-101"/>
     <use x="1165.503906" xlink:href="#DejaVuSans-115"/>
     <use x="1217.603516" xlink:href="#DejaVuSans-116"/>
     <use x="1256.8125" xlink:href="#DejaVuSans-97"/>
     <use x="1318.091797" xlink:href="#DejaVuSans-108"/>
     <use x="1345.875" xlink:href="#DejaVuSans-32"/>
     <use x="1377.662109" xlink:href="#DejaVuSans-114"/>
     <use x="1417.025391" xlink:href="#DejaVuSans-109"/>
     <use x="1514.4375" xlink:href="#DejaVuSans-115"/>
     <use x="1566.537109" xlink:href="#DejaVuSans-32"/>
     <use x="1598.324219" xlink:href="#DejaVuSans-47"/>
     <use x="1632.015625" xlink:href="#DejaVuSans-32"/>
     <use x="1663.802734" xlink:href="#DejaVuSans-71"/>
     <use x="1741.292969" xlink:href="#DejaVuSans-97"/>
     <use x="1802.572266" xlink:href="#DejaVuSans-105"/>
     <use x="1830.355469" xlink:href="#DejaVuSans-110"/>
     <use x="1893.734375" xlink:href="#DejaVuSans-32"/>
     <use x="1925.521484" xlink:href="#DejaVuSans-119"/>
     <use x="2007.308594" xlink:href="#DejaVuSans-105"/>
     <use x="2035.091797" xlink:href="#DejaVuSans-116"/>
     <use x="2074.300781" xlink:href="#DejaVuSans-104"/>
     <use x="2137.679688" xlink:href="#DejaVuSans-32"/>
     <use x="2169.466797" xlink:href="#DejaVuSans-112"/>
     <use x="2232.943359" xlink:href="#DejaVuSans-111"/>
     <use x="2294.125" xlink:href="#DejaVuSans-108"/>
     <use x="2321.908203" xlink:href="#DejaVuSans-121"/>
     <use x="2381.087891" xlink:href="#DejaVuSans-110"/>
     <use x="2444.466797" xlink:href="#DejaVuSans-111"/>
     <use x="2505.648438" xlink:href="#DejaVuSans-109"/>
     <use x="2603.060547" xlink:href="#DejaVuSans-105"/>
     <use x="2630.84375" xlink:href="#DejaVuSans-97"/>
     <use x="2692.123047" xlink:href="#DejaVuSans-108"/>
     <use x="2719.90625" xlink:href="#DejaVuSans-32"/>
     <use x="2751.693359" xlink:href="#DejaVuSans-40"/>
     <use x="2790.707031" xlink:href="#DejaVuSans-100"/>
     <use x="2854.183594" xlink:href="#DejaVuSans-101"/>
     <use x="2915.707031" xlink:href="#DejaVuSans-103"/>
     <use x="2979.183594" xlink:href="#DejaVuSans-61"/>
     <use x="3062.972656" xlink:href="#DejaVuSans-52"/>
     <use x="3126.595703" xlink:href="#DejaVuSans-41"/>
     <use x="3165.609375" xlink:href="#DejaVuSans-32"/>
     <use x="3197.396484" xlink:href="#DejaVuSans-102"/>
     <use x="3232.601562" xlink:href="#DejaVuSans-105"/>
     <use x="3260.384766" xlink:href="#DejaVuSans-116"/>
     <use x="3299.59375" xlink:href="#DejaVuSans-32"/>
     <use x="3331.380859" xlink:href="#DejaVuSans-115"/>
     <use x="3383.480469" xlink:href="#DejaVuSans-108"/>
     <use x="3411.263672" xlink:href="#DejaVuSans-111"/>
     <use x="3472.445312" xlink:href="#DejaVuSans-112"/>
     <use x="3535.921875" xlink:href="#DejaVuSans-101"/>
     <use x="3597.445312" xlink:href="#DejaVuSans-41"/>
    </g>
   </g>
   <g id="legend_1">
    <g id="patch_263">
     <path d="M 1113.252625 359.730625 
L 1156.052625 359.730625 
Q 1158.052625 359.730625 1158.052625 357.730625 
L 1158.052625 241.305625 
Q 1158.052625 239.305625 1156.052625 239.305625 
L 1113.252625 239.305625 
Q 1111.252625 239.305625 1111.252625 241.305625 
L 1111.252625 357.730625 
Q 1111.252625 359.730625 1113.252625 359.730625 
z
" style="fill:#ffffff;opacity:0.8;stroke:#cccccc;stroke-linejoin:miter;"/>
    </g>
    <g id="patch_264">
     <path d="M 1115.252625 250.904063 
L 1135.252625 250.904063 
L 1135.252625 243.904063 
L 1115.252625 243.904063 
z
" style="fill:#1f77b4;"/>
    </g>
    <g id="text_16">
     <!-- $\tau_0$ -->
     <g transform="translate(1143.252625 250.904063)scale(0.1 -0.1)">
      <defs>
       <path d="M 32.859375 9.96875 
Q 34.1875 7.625 39.453125 7.625 
L 43.75 7.625 
L 42.28125 0 
L 36.921875 0 
Q 28.125 0 25 4.6875 
Q 21.921875 9.46875 23.96875 19.828125 
L 29 45.703125 
L 8.453125 45.703125 
L 10.203125 54.6875 
L 60.640625 54.6875 
L 58.890625 45.703125 
L 38.1875 45.703125 
L 33.015625 19.28125 
Q 31.640625 12.203125 32.859375 9.96875 
z
" id="DejaVuSans-Oblique-964"/>
      </defs>
      <use transform="translate(0 0.3125)" xlink:href="#DejaVuSans-Oblique-964"/>
      <use transform="translate(60.205078 -16.09375)scale(0.7)" xlink:href="#DejaVuSans-48"/>
     </g>
    </g>
    <g id="patch_265">
     <path d="M 1115.252625 265.582188 
L 1135.252625 265.582188 
L 1135.252625 258.582188 
L 1115.252625 258.582188 
z
" style="fill:#ff7f0e;"/>
    </g>
    <g id="text_17">
     <!-- $\tau_1$ -->
     <g transform="translate(1143.252625 265.582188)scale(0.1 -0.1)">
      <use transform="translate(0 0.3125)" xlink:href="#DejaVuSans-Oblique-964"/>
      <use transform="translate(60.205078 -16.09375)scale(0.7)" xlink:href="#DejaVuSans-49"/>
     </g>
    </g>
    <g id="patch_266">
     <path d="M 1115.252625 280.260313 
L 1135.252625 280.260313 
L 1135.252625 273.260313 
L 1115.252625 273.260313 
z
" style="fill:#2ca02c;"/>
    </g>
    <g id="text_18">
     <!-- $\tau_2$ -->
     <g transform="translate(1143.252625 280.260313)scale(0.1 -0.1)">
      <use transform="translate(0 0.3125)" xlink:href="#DejaVuSans-Oblique-964"/>
      <use transform="translate(60.205078 -16.09375)scale(0.7)" xlink:href="#DejaVuSans-50"/>
     </g>
    </g>
    <g id="patch_267">
     <path d="M 1115.252625 294.938438 
L 1135.252625 294.938438 
L 1135.252625 287.938438 
L 1115.252625 287.938438 
z
" style="fill:#d62728;"/>
    </g>
    <g id="text_19">
     <!-- $\tau_3$ -->
     <g transform="translate(1143.252625 294.938438)scale(0.1 -0.1)">
      <use transform="translate(0 0.3125)" xlink:href="#DejaVuSans-Oblique-964"/>
      <use transform="translate(60.205078 -16.09375)scale(0.7)" xlink:href="#DejaVuSans-51"/>
     </g>
    </g>
    <g id="patch_268">
     <path d="M 1115.252625 309.616563 
L 1135.252625 309.616563 
L 1135.252625 302.616563 
L 1115.252625 302.616563 
z
" style="fill:#9467bd;"/>
    </g>
    <g id="text_20">
     <!-- $\tau_4$ -->
     <g transform="translate(1143.252625 309.616563)scale(0.1 -0.1)">
      <use transform="translate(0 0.3125)" xlink:href="#DejaVuSans-Oblique-964"/>
      <use transform="translate(60.205078 -16.09375)scale(0.7)" xlink:href="#DejaVuSans-52"/>
     </g>
    </g>
    <g id="patch_269">
     <path d="M 1115.252625 324.294688 
L 1135.252625 324.294688 
L 1135.252625 317.294688 
L 1115.252625 317.294688 
z
" style="fill:#8c564b;"/>
    </g>
    <g id="text_21">
     <!-- $\tau_5$ -->
     <g transform="translate(1143.252625 324.294688)scale(0.1 -0.1)">
      <use transform="translate(0 0.3125)" xlink:href="#DejaVuSans-Oblique-964"/>
      <use transform="translate(60.205078 -16.09375)scale(0.7)" xlink:href="#DejaVuSans-53"/>
     </g>
    </g>
    <g id="patch_270">
     <path d="M 1115.252625 338.972813 
L 1135.252625 338.972813 
L 1135.252625 331.972813 
L 1115.252625 331.972813 
z
" style="fill:#e377c2;"/>
    </g>
    <g id="text_22">
     <!-- $\tau_6$ -->
     <g transform="translate(1143.252625 338.972813)scale(0.1 -0.1)">
      <use transform="translate(0 0.3125)" xlink:href="#DejaVuSans-Oblique-964"/>
      <use transform="translate(60.205078 -16.09375)scale(0.7)" xlink:href="#DejaVuSans-54"/>
     </g>
    </g>
    <g id="patch_271">
     <path d="M 1115.252625 353.650938 
L 1135.252625 353.650938 
L 1135.252625 346.650938 
L 1115.252625 346.650938 
z
" style="fill:#7f7f7f;"/>
    </g>
    <g id="text_23">
     <!-- $\tau_7$ -->
     <g transform="translate(1143.252625 353.650938)scale(0.1 -0.1)">
      <defs>
       <path d="M 8.203125 72.90625 
L 55.078125 72.90625 
L 55.078125 68.703125 
L 28.609375 0 
L 18.3125 0 
L 43.21875 64.59375 
L 8.203125 64.59375 
z
" id="DejaVuSans-55"/>
      </defs>
      <use transform="translate(0 0.3125)" xlink:href="#DejaVuSans-Oblique-964"/>
      <use transform="translate(60.205078 -16.09375)scale(0.7)" xlink:href="#DejaVuSans-55"/>
     </g>
    </g>
   </g>
  </g>
 </g>
 <defs>
  <clipPath id="p628d4b1595">
   <rect height="554.4" width="1060.2" x="34.240625" y="22.318125"/>
  </clipPath>
 </defs>
</svg>
