<?xml version="1.0" encoding="utf-8" standalone="no"?>
<!DOCTYPE svg PUBLIC "-//W3C//DTD SVG 1.1//EN"
  "http://www.w3.org/Graphics/SVG/1.1/DTD/svg11.dtd">
<!-- Created with matplotlib (https://matplotlib.org/) -->
<svg height="393.53625pt" version="1.1" viewBox="0 0 780.95975 393.53625" width="780.95975pt" xmlns="http://www.w3.org/2000/svg" xmlns:xlink="http://www.w3.org/1999/xlink">
 <metadata>
  <rdf:RDF xmlns:cc="http://creativecommons.org/ns#" xmlns:dc="http://purl.org/dc/elements/1.1/" xmlns:rdf="http://www.w3.org/1999/02/22-rdf-syntax-ns#">
   <cc:Work>
    <dc:type rdf:resource="http://purl.org/dc/dcmitype/StillImage"/>
    <dc:date>2022-12-07T08:47:36.982979</dc:date>
    <dc:format>image/svg+xml</dc:format>
    <dc:creator>
     <cc:Agent>
      <dc:title>Matplotlib v3.3.4, https://matplotlib.org/</dc:title>
     </cc:Agent>
    </dc:creator>
   </cc:Work>
  </rdf:RDF>
 </metadata>
 <defs>
  <style type="text/css">*{stroke-linecap:butt;stroke-linejoin:round;}</style>
 </defs>
 <g id="figure_1">
  <g id="patch_1">
   <path d="M 0 393.53625 
L 780.95975 393.53625 
L 780.95975 0 
L 0 0 
z
" style="fill:#ffffff;"/>
  </g>
  <g id="axes_1">
   <g id="patch_2">
    <path d="M 47.24375 354.958125 
L 515.96375 354.958125 
L 515.96375 22.318125 
L 47.24375 22.318125 
z
" style="fill:#ffffff;"/>
   </g>
   <g id="matplotlib.axis_1">
    <g id="xtick_1">
     <g id="line2d_1">
      <path clip-path="url(#p11b0559d5b)" d="M 68.549205 354.958125 
L 68.549205 22.318125 
" style="fill:none;stroke:#b0b0b0;stroke-linecap:square;stroke-width:0.8;"/>
     </g>
     <g id="line2d_2">
      <defs>
       <path d="M 0 0 
L 0 3.5 
" id="mfe8eb3a55e" style="stroke:#000000;stroke-width:0.8;"/>
      </defs>
      <g>
       <use style="stroke:#000000;stroke-width:0.8;" x="68.549205" xlink:href="#mfe8eb3a55e" y="354.958125"/>
      </g>
     </g>
     <g id="text_1">
      <!-- 0 -->
      <g transform="translate(65.367955 369.556562)scale(0.1 -0.1)">
       <defs>
        <path d="M 31.78125 66.40625 
Q 24.171875 66.40625 20.328125 58.90625 
Q 16.5 51.421875 16.5 36.375 
Q 16.5 21.390625 20.328125 13.890625 
Q 24.171875 6.390625 31.78125 6.390625 
Q 39.453125 6.390625 43.28125 13.890625 
Q 47.125 21.390625 47.125 36.375 
Q 47.125 51.421875 43.28125 58.90625 
Q 39.453125 66.40625 31.78125 66.40625 
z
M 31.78125 74.21875 
Q 44.046875 74.21875 50.515625 64.515625 
Q 56.984375 54.828125 56.984375 36.375 
Q 56.984375 17.96875 50.515625 8.265625 
Q 44.046875 -1.421875 31.78125 -1.421875 
Q 19.53125 -1.421875 13.0625 8.265625 
Q 6.59375 17.96875 6.59375 36.375 
Q 6.59375 54.828125 13.0625 64.515625 
Q 19.53125 74.21875 31.78125 74.21875 
z
" id="DejaVuSans-48"/>
       </defs>
       <use xlink:href="#DejaVuSans-48"/>
      </g>
     </g>
    </g>
    <g id="xtick_2">
     <g id="line2d_3">
      <path clip-path="url(#p11b0559d5b)" d="M 153.771023 354.958125 
L 153.771023 22.318125 
" style="fill:none;stroke:#b0b0b0;stroke-linecap:square;stroke-width:0.8;"/>
     </g>
     <g id="line2d_4">
      <g>
       <use style="stroke:#000000;stroke-width:0.8;" x="153.771023" xlink:href="#mfe8eb3a55e" y="354.958125"/>
      </g>
     </g>
     <g id="text_2">
      <!-- 100 -->
      <g transform="translate(144.227273 369.556562)scale(0.1 -0.1)">
       <defs>
        <path d="M 12.40625 8.296875 
L 28.515625 8.296875 
L 28.515625 63.921875 
L 10.984375 60.40625 
L 10.984375 69.390625 
L 28.421875 72.90625 
L 38.28125 72.90625 
L 38.28125 8.296875 
L 54.390625 8.296875 
L 54.390625 0 
L 12.40625 0 
z
" id="DejaVuSans-49"/>
       </defs>
       <use xlink:href="#DejaVuSans-49"/>
       <use x="63.623047" xlink:href="#DejaVuSans-48"/>
       <use x="127.246094" xlink:href="#DejaVuSans-48"/>
      </g>
     </g>
    </g>
    <g id="xtick_3">
     <g id="line2d_5">
      <path clip-path="url(#p11b0559d5b)" d="M 238.992841 354.958125 
L 238.992841 22.318125 
" style="fill:none;stroke:#b0b0b0;stroke-linecap:square;stroke-width:0.8;"/>
     </g>
     <g id="line2d_6">
      <g>
       <use style="stroke:#000000;stroke-width:0.8;" x="238.992841" xlink:href="#mfe8eb3a55e" y="354.958125"/>
      </g>
     </g>
     <g id="text_3">
      <!-- 200 -->
      <g transform="translate(229.449091 369.556562)scale(0.1 -0.1)">
       <defs>
        <path d="M 19.1875 8.296875 
L 53.609375 8.296875 
L 53.609375 0 
L 7.328125 0 
L 7.328125 8.296875 
Q 12.9375 14.109375 22.625 23.890625 
Q 32.328125 33.6875 34.8125 36.53125 
Q 39.546875 41.84375 41.421875 45.53125 
Q 43.3125 49.21875 43.3125 52.78125 
Q 43.3125 58.59375 39.234375 62.25 
Q 35.15625 65.921875 28.609375 65.921875 
Q 23.96875 65.921875 18.8125 64.3125 
Q 13.671875 62.703125 7.8125 59.421875 
L 7.8125 69.390625 
Q 13.765625 71.78125 18.9375 73 
Q 24.125 74.21875 28.421875 74.21875 
Q 39.75 74.21875 46.484375 68.546875 
Q 53.21875 62.890625 53.21875 53.421875 
Q 53.21875 48.921875 51.53125 44.890625 
Q 49.859375 40.875 45.40625 35.40625 
Q 44.1875 33.984375 37.640625 27.21875 
Q 31.109375 20.453125 19.1875 8.296875 
z
" id="DejaVuSans-50"/>
       </defs>
       <use xlink:href="#DejaVuSans-50"/>
       <use x="63.623047" xlink:href="#DejaVuSans-48"/>
       <use x="127.246094" xlink:href="#DejaVuSans-48"/>
      </g>
     </g>
    </g>
    <g id="xtick_4">
     <g id="line2d_7">
      <path clip-path="url(#p11b0559d5b)" d="M 324.214659 354.958125 
L 324.214659 22.318125 
" style="fill:none;stroke:#b0b0b0;stroke-linecap:square;stroke-width:0.8;"/>
     </g>
     <g id="line2d_8">
      <g>
       <use style="stroke:#000000;stroke-width:0.8;" x="324.214659" xlink:href="#mfe8eb3a55e" y="354.958125"/>
      </g>
     </g>
     <g id="text_4">
      <!-- 300 -->
      <g transform="translate(314.670909 369.556562)scale(0.1 -0.1)">
       <defs>
        <path d="M 40.578125 39.3125 
Q 47.65625 37.796875 51.625 33 
Q 55.609375 28.21875 55.609375 21.1875 
Q 55.609375 10.40625 48.1875 4.484375 
Q 40.765625 -1.421875 27.09375 -1.421875 
Q 22.515625 -1.421875 17.65625 -0.515625 
Q 12.796875 0.390625 7.625 2.203125 
L 7.625 11.71875 
Q 11.71875 9.328125 16.59375 8.109375 
Q 21.484375 6.890625 26.8125 6.890625 
Q 36.078125 6.890625 40.9375 10.546875 
Q 45.796875 14.203125 45.796875 21.1875 
Q 45.796875 27.640625 41.28125 31.265625 
Q 36.765625 34.90625 28.71875 34.90625 
L 20.21875 34.90625 
L 20.21875 43.015625 
L 29.109375 43.015625 
Q 36.375 43.015625 40.234375 45.921875 
Q 44.09375 48.828125 44.09375 54.296875 
Q 44.09375 59.90625 40.109375 62.90625 
Q 36.140625 65.921875 28.71875 65.921875 
Q 24.65625 65.921875 20.015625 65.03125 
Q 15.375 64.15625 9.8125 62.3125 
L 9.8125 71.09375 
Q 15.4375 72.65625 20.34375 73.4375 
Q 25.25 74.21875 29.59375 74.21875 
Q 40.828125 74.21875 47.359375 69.109375 
Q 53.90625 64.015625 53.90625 55.328125 
Q 53.90625 49.265625 50.4375 45.09375 
Q 46.96875 40.921875 40.578125 39.3125 
z
" id="DejaVuSans-51"/>
       </defs>
       <use xlink:href="#DejaVuSans-51"/>
       <use x="63.623047" xlink:href="#DejaVuSans-48"/>
       <use x="127.246094" xlink:href="#DejaVuSans-48"/>
      </g>
     </g>
    </g>
    <g id="xtick_5">
     <g id="line2d_9">
      <path clip-path="url(#p11b0559d5b)" d="M 409.436477 354.958125 
L 409.436477 22.318125 
" style="fill:none;stroke:#b0b0b0;stroke-linecap:square;stroke-width:0.8;"/>
     </g>
     <g id="line2d_10">
      <g>
       <use style="stroke:#000000;stroke-width:0.8;" x="409.436477" xlink:href="#mfe8eb3a55e" y="354.958125"/>
      </g>
     </g>
     <g id="text_5">
      <!-- 400 -->
      <g transform="translate(399.892727 369.556562)scale(0.1 -0.1)">
       <defs>
        <path d="M 37.796875 64.3125 
L 12.890625 25.390625 
L 37.796875 25.390625 
z
M 35.203125 72.90625 
L 47.609375 72.90625 
L 47.609375 25.390625 
L 58.015625 25.390625 
L 58.015625 17.1875 
L 47.609375 17.1875 
L 47.609375 0 
L 37.796875 0 
L 37.796875 17.1875 
L 4.890625 17.1875 
L 4.890625 26.703125 
z
" id="DejaVuSans-52"/>
       </defs>
       <use xlink:href="#DejaVuSans-52"/>
       <use x="63.623047" xlink:href="#DejaVuSans-48"/>
       <use x="127.246094" xlink:href="#DejaVuSans-48"/>
      </g>
     </g>
    </g>
    <g id="xtick_6">
     <g id="line2d_11">
      <path clip-path="url(#p11b0559d5b)" d="M 494.658295 354.958125 
L 494.658295 22.318125 
" style="fill:none;stroke:#b0b0b0;stroke-linecap:square;stroke-width:0.8;"/>
     </g>
     <g id="line2d_12">
      <g>
       <use style="stroke:#000000;stroke-width:0.8;" x="494.658295" xlink:href="#mfe8eb3a55e" y="354.958125"/>
      </g>
     </g>
     <g id="text_6">
      <!-- 500 -->
      <g transform="translate(485.114545 369.556562)scale(0.1 -0.1)">
       <defs>
        <path d="M 10.796875 72.90625 
L 49.515625 72.90625 
L 49.515625 64.59375 
L 19.828125 64.59375 
L 19.828125 46.734375 
Q 21.96875 47.46875 24.109375 47.828125 
Q 26.265625 48.1875 28.421875 48.1875 
Q 40.625 48.1875 47.75 41.5 
Q 54.890625 34.8125 54.890625 23.390625 
Q 54.890625 11.625 47.5625 5.09375 
Q 40.234375 -1.421875 26.90625 -1.421875 
Q 22.3125 -1.421875 17.546875 -0.640625 
Q 12.796875 0.140625 7.71875 1.703125 
L 7.71875 11.625 
Q 12.109375 9.234375 16.796875 8.0625 
Q 21.484375 6.890625 26.703125 6.890625 
Q 35.15625 6.890625 40.078125 11.328125 
Q 45.015625 15.765625 45.015625 23.390625 
Q 45.015625 31 40.078125 35.4375 
Q 35.15625 39.890625 26.703125 39.890625 
Q 22.75 39.890625 18.8125 39.015625 
Q 14.890625 38.140625 10.796875 36.28125 
z
" id="DejaVuSans-53"/>
       </defs>
       <use xlink:href="#DejaVuSans-53"/>
       <use x="63.623047" xlink:href="#DejaVuSans-48"/>
       <use x="127.246094" xlink:href="#DejaVuSans-48"/>
      </g>
     </g>
    </g>
    <g id="text_7">
     <!-- Cal_Voltage [$DAC_{inj}$ code] -->
     <g transform="translate(217.80375 383.23625)scale(0.1 -0.1)">
      <defs>
       <path d="M 64.40625 67.28125 
L 64.40625 56.890625 
Q 59.421875 61.53125 53.78125 63.8125 
Q 48.140625 66.109375 41.796875 66.109375 
Q 29.296875 66.109375 22.65625 58.46875 
Q 16.015625 50.828125 16.015625 36.375 
Q 16.015625 21.96875 22.65625 14.328125 
Q 29.296875 6.6875 41.796875 6.6875 
Q 48.140625 6.6875 53.78125 8.984375 
Q 59.421875 11.28125 64.40625 15.921875 
L 64.40625 5.609375 
Q 59.234375 2.09375 53.4375 0.328125 
Q 47.65625 -1.421875 41.21875 -1.421875 
Q 24.65625 -1.421875 15.125 8.703125 
Q 5.609375 18.84375 5.609375 36.375 
Q 5.609375 53.953125 15.125 64.078125 
Q 24.65625 74.21875 41.21875 74.21875 
Q 47.75 74.21875 53.53125 72.484375 
Q 59.328125 70.75 64.40625 67.28125 
z
" id="DejaVuSans-67"/>
       <path d="M 34.28125 27.484375 
Q 23.390625 27.484375 19.1875 25 
Q 14.984375 22.515625 14.984375 16.5 
Q 14.984375 11.71875 18.140625 8.90625 
Q 21.296875 6.109375 26.703125 6.109375 
Q 34.1875 6.109375 38.703125 11.40625 
Q 43.21875 16.703125 43.21875 25.484375 
L 43.21875 27.484375 
z
M 52.203125 31.203125 
L 52.203125 0 
L 43.21875 0 
L 43.21875 8.296875 
Q 40.140625 3.328125 35.546875 0.953125 
Q 30.953125 -1.421875 24.3125 -1.421875 
Q 15.921875 -1.421875 10.953125 3.296875 
Q 6 8.015625 6 15.921875 
Q 6 25.140625 12.171875 29.828125 
Q 18.359375 34.515625 30.609375 34.515625 
L 43.21875 34.515625 
L 43.21875 35.40625 
Q 43.21875 41.609375 39.140625 45 
Q 35.0625 48.390625 27.6875 48.390625 
Q 23 48.390625 18.546875 47.265625 
Q 14.109375 46.140625 10.015625 43.890625 
L 10.015625 52.203125 
Q 14.9375 54.109375 19.578125 55.046875 
Q 24.21875 56 28.609375 56 
Q 40.484375 56 46.34375 49.84375 
Q 52.203125 43.703125 52.203125 31.203125 
z
" id="DejaVuSans-97"/>
       <path d="M 9.421875 75.984375 
L 18.40625 75.984375 
L 18.40625 0 
L 9.421875 0 
z
" id="DejaVuSans-108"/>
       <path d="M 50.984375 -16.609375 
L 50.984375 -23.578125 
L -0.984375 -23.578125 
L -0.984375 -16.609375 
z
" id="DejaVuSans-95"/>
       <path d="M 28.609375 0 
L 0.78125 72.90625 
L 11.078125 72.90625 
L 34.1875 11.53125 
L 57.328125 72.90625 
L 67.578125 72.90625 
L 39.796875 0 
z
" id="DejaVuSans-86"/>
       <path d="M 30.609375 48.390625 
Q 23.390625 48.390625 19.1875 42.75 
Q 14.984375 37.109375 14.984375 27.296875 
Q 14.984375 17.484375 19.15625 11.84375 
Q 23.34375 6.203125 30.609375 6.203125 
Q 37.796875 6.203125 41.984375 11.859375 
Q 46.1875 17.53125 46.1875 27.296875 
Q 46.1875 37.015625 41.984375 42.703125 
Q 37.796875 48.390625 30.609375 48.390625 
z
M 30.609375 56 
Q 42.328125 56 49.015625 48.375 
Q 55.71875 40.765625 55.71875 27.296875 
Q 55.71875 13.875 49.015625 6.21875 
Q 42.328125 -1.421875 30.609375 -1.421875 
Q 18.84375 -1.421875 12.171875 6.21875 
Q 5.515625 13.875 5.515625 27.296875 
Q 5.515625 40.765625 12.171875 48.375 
Q 18.84375 56 30.609375 56 
z
" id="DejaVuSans-111"/>
       <path d="M 18.3125 70.21875 
L 18.3125 54.6875 
L 36.8125 54.6875 
L 36.8125 47.703125 
L 18.3125 47.703125 
L 18.3125 18.015625 
Q 18.3125 11.328125 20.140625 9.421875 
Q 21.96875 7.515625 27.59375 7.515625 
L 36.8125 7.515625 
L 36.8125 0 
L 27.59375 0 
Q 17.1875 0 13.234375 3.875 
Q 9.28125 7.765625 9.28125 18.015625 
L 9.28125 47.703125 
L 2.6875 47.703125 
L 2.6875 54.6875 
L 9.28125 54.6875 
L 9.28125 70.21875 
z
" id="DejaVuSans-116"/>
       <path d="M 45.40625 27.984375 
Q 45.40625 37.75 41.375 43.109375 
Q 37.359375 48.484375 30.078125 48.484375 
Q 22.859375 48.484375 18.828125 43.109375 
Q 14.796875 37.75 14.796875 27.984375 
Q 14.796875 18.265625 18.828125 12.890625 
Q 22.859375 7.515625 30.078125 7.515625 
Q 37.359375 7.515625 41.375 12.890625 
Q 45.40625 18.265625 45.40625 27.984375 
z
M 54.390625 6.78125 
Q 54.390625 -7.171875 48.1875 -13.984375 
Q 42 -20.796875 29.203125 -20.796875 
Q 24.46875 -20.796875 20.265625 -20.09375 
Q 16.0625 -19.390625 12.109375 -17.921875 
L 12.109375 -9.1875 
Q 16.0625 -11.328125 19.921875 -12.34375 
Q 23.78125 -13.375 27.78125 -13.375 
Q 36.625 -13.375 41.015625 -8.765625 
Q 45.40625 -4.15625 45.40625 5.171875 
L 45.40625 9.625 
Q 42.625 4.78125 38.28125 2.390625 
Q 33.9375 0 27.875 0 
Q 17.828125 0 11.671875 7.65625 
Q 5.515625 15.328125 5.515625 27.984375 
Q 5.515625 40.671875 11.671875 48.328125 
Q 17.828125 56 27.875 56 
Q 33.9375 56 38.28125 53.609375 
Q 42.625 51.21875 45.40625 46.390625 
L 45.40625 54.6875 
L 54.390625 54.6875 
z
" id="DejaVuSans-103"/>
       <path d="M 56.203125 29.59375 
L 56.203125 25.203125 
L 14.890625 25.203125 
Q 15.484375 15.921875 20.484375 11.0625 
Q 25.484375 6.203125 34.421875 6.203125 
Q 39.59375 6.203125 44.453125 7.46875 
Q 49.3125 8.734375 54.109375 11.28125 
L 54.109375 2.78125 
Q 49.265625 0.734375 44.1875 -0.34375 
Q 39.109375 -1.421875 33.890625 -1.421875 
Q 20.796875 -1.421875 13.15625 6.1875 
Q 5.515625 13.8125 5.515625 26.8125 
Q 5.515625 40.234375 12.765625 48.109375 
Q 20.015625 56 32.328125 56 
Q 43.359375 56 49.78125 48.890625 
Q 56.203125 41.796875 56.203125 29.59375 
z
M 47.21875 32.234375 
Q 47.125 39.59375 43.09375 43.984375 
Q 39.0625 48.390625 32.421875 48.390625 
Q 24.90625 48.390625 20.390625 44.140625 
Q 15.875 39.890625 15.1875 32.171875 
z
" id="DejaVuSans-101"/>
       <path id="DejaVuSans-32"/>
       <path d="M 8.59375 75.984375 
L 29.296875 75.984375 
L 29.296875 69 
L 17.578125 69 
L 17.578125 -6.203125 
L 29.296875 -6.203125 
L 29.296875 -13.1875 
L 8.59375 -13.1875 
z
" id="DejaVuSans-91"/>
       <path d="M 16.890625 72.90625 
L 38.09375 72.90625 
Q 54.984375 72.90625 63.59375 65.75 
Q 72.21875 58.59375 72.21875 44.484375 
Q 72.21875 35.15625 68.9375 26.53125 
Q 65.671875 17.921875 59.90625 12.015625 
Q 54.109375 5.953125 45.171875 2.96875 
Q 36.234375 0 24.03125 0 
L 2.6875 0 
z
M 25.203125 64.796875 
L 14.203125 8.109375 
L 27.09375 8.109375 
Q 43.65625 8.109375 52.734375 17.625 
Q 61.8125 27.15625 61.8125 44.484375 
Q 61.8125 54.984375 55.953125 59.890625 
Q 50.09375 64.796875 37.59375 64.796875 
z
" id="DejaVuSans-Oblique-68"/>
       <path d="M 36.8125 72.90625 
L 48 72.90625 
L 61.53125 0 
L 51.21875 0 
L 48.1875 18.703125 
L 15.375 18.703125 
L 5.078125 0 
L -5.328125 0 
z
M 40.375 63.1875 
L 19.921875 26.90625 
L 46.6875 26.90625 
z
" id="DejaVuSans-Oblique-65"/>
       <path d="M 69.484375 67.28125 
L 67.484375 56.890625 
Q 62.796875 61.625 57.546875 63.921875 
Q 52.296875 66.21875 46.1875 66.21875 
Q 37.84375 66.21875 31.515625 62.203125 
Q 25.203125 58.203125 20.609375 50 
Q 17.671875 44.734375 16.125 38.84375 
Q 14.59375 32.953125 14.59375 27 
Q 14.59375 17.046875 19.75 11.8125 
Q 24.90625 6.59375 34.71875 6.59375 
Q 41.5 6.59375 47.75 8.765625 
Q 54 10.9375 59.90625 15.28125 
L 57.625 3.609375 
Q 51.8125 1.125 45.875 -0.140625 
Q 39.9375 -1.421875 33.984375 -1.421875 
Q 19.96875 -1.421875 12.078125 6.1875 
Q 4.203125 13.8125 4.203125 27.390625 
Q 4.203125 36.078125 7.203125 44.46875 
Q 10.203125 52.875 15.828125 59.8125 
Q 21.78125 67.1875 29.421875 70.703125 
Q 37.0625 74.21875 47.21875 74.21875 
Q 53.46875 74.21875 59.0625 72.484375 
Q 64.65625 70.75 69.484375 67.28125 
z
" id="DejaVuSans-Oblique-67"/>
       <path d="M 18.3125 75.984375 
L 27.296875 75.984375 
L 25.09375 64.59375 
L 16.109375 64.59375 
z
M 14.203125 54.6875 
L 23.1875 54.6875 
L 12.5 0 
L 3.515625 0 
z
" id="DejaVuSans-Oblique-105"/>
       <path d="M 55.71875 33.015625 
L 49.3125 0 
L 40.28125 0 
L 46.6875 32.671875 
Q 47.125 34.96875 47.359375 36.71875 
Q 47.609375 38.484375 47.609375 39.5 
Q 47.609375 43.609375 45.015625 45.890625 
Q 42.4375 48.1875 37.796875 48.1875 
Q 30.5625 48.1875 25.34375 43.375 
Q 20.125 38.578125 18.5 30.328125 
L 12.5 0 
L 3.515625 0 
L 14.109375 54.6875 
L 23.09375 54.6875 
L 21.296875 46.09375 
Q 25.046875 50.828125 30.3125 53.40625 
Q 35.59375 56 41.40625 56 
Q 48.640625 56 52.609375 52.09375 
Q 56.59375 48.1875 56.59375 41.109375 
Q 56.59375 39.359375 56.375 37.359375 
Q 56.15625 35.359375 55.71875 33.015625 
z
" id="DejaVuSans-Oblique-110"/>
       <path d="M 14.5 54.6875 
L 23.484375 54.6875 
L 12.703125 -0.984375 
L 12.640625 -1.21875 
Q 10.84375 -10.546875 8.5 -14.015625 
Q 6.296875 -17.28125 2.0625 -19.03125 
Q -2.15625 -20.796875 -7.90625 -20.796875 
L -11.28125 -20.796875 
L -9.8125 -13.1875 
L -7.515625 -13.1875 
Q -2.25 -13.1875 -0.015625 -10.984375 
Q 2.203125 -8.796875 3.71875 -0.984375 
z
M 18.703125 75.984375 
L 27.6875 75.984375 
L 25.484375 64.59375 
L 16.5 64.59375 
z
" id="DejaVuSans-Oblique-106"/>
       <path d="M 48.78125 52.59375 
L 48.78125 44.1875 
Q 44.96875 46.296875 41.140625 47.34375 
Q 37.3125 48.390625 33.40625 48.390625 
Q 24.65625 48.390625 19.8125 42.84375 
Q 14.984375 37.3125 14.984375 27.296875 
Q 14.984375 17.28125 19.8125 11.734375 
Q 24.65625 6.203125 33.40625 6.203125 
Q 37.3125 6.203125 41.140625 7.25 
Q 44.96875 8.296875 48.78125 10.40625 
L 48.78125 2.09375 
Q 45.015625 0.34375 40.984375 -0.53125 
Q 36.96875 -1.421875 32.421875 -1.421875 
Q 20.0625 -1.421875 12.78125 6.34375 
Q 5.515625 14.109375 5.515625 27.296875 
Q 5.515625 40.671875 12.859375 48.328125 
Q 20.21875 56 33.015625 56 
Q 37.15625 56 41.109375 55.140625 
Q 45.0625 54.296875 48.78125 52.59375 
z
" id="DejaVuSans-99"/>
       <path d="M 45.40625 46.390625 
L 45.40625 75.984375 
L 54.390625 75.984375 
L 54.390625 0 
L 45.40625 0 
L 45.40625 8.203125 
Q 42.578125 3.328125 38.25 0.953125 
Q 33.9375 -1.421875 27.875 -1.421875 
Q 17.96875 -1.421875 11.734375 6.484375 
Q 5.515625 14.40625 5.515625 27.296875 
Q 5.515625 40.1875 11.734375 48.09375 
Q 17.96875 56 27.875 56 
Q 33.9375 56 38.25 53.625 
Q 42.578125 51.265625 45.40625 46.390625 
z
M 14.796875 27.296875 
Q 14.796875 17.390625 18.875 11.75 
Q 22.953125 6.109375 30.078125 6.109375 
Q 37.203125 6.109375 41.296875 11.75 
Q 45.40625 17.390625 45.40625 27.296875 
Q 45.40625 37.203125 41.296875 42.84375 
Q 37.203125 48.484375 30.078125 48.484375 
Q 22.953125 48.484375 18.875 42.84375 
Q 14.796875 37.203125 14.796875 27.296875 
z
" id="DejaVuSans-100"/>
       <path d="M 30.421875 75.984375 
L 30.421875 -13.1875 
L 9.71875 -13.1875 
L 9.71875 -6.203125 
L 21.390625 -6.203125 
L 21.390625 69 
L 9.71875 69 
L 9.71875 75.984375 
z
" id="DejaVuSans-93"/>
      </defs>
      <use transform="translate(0 0.015625)" xlink:href="#DejaVuSans-67"/>
      <use transform="translate(69.824219 0.015625)" xlink:href="#DejaVuSans-97"/>
      <use transform="translate(131.103516 0.015625)" xlink:href="#DejaVuSans-108"/>
      <use transform="translate(158.886719 0.015625)" xlink:href="#DejaVuSans-95"/>
      <use transform="translate(208.886719 0.015625)" xlink:href="#DejaVuSans-86"/>
      <use transform="translate(277.294922 0.015625)" xlink:href="#DejaVuSans-111"/>
      <use transform="translate(338.476562 0.015625)" xlink:href="#DejaVuSans-108"/>
      <use transform="translate(366.259766 0.015625)" xlink:href="#DejaVuSans-116"/>
      <use transform="translate(405.46875 0.015625)" xlink:href="#DejaVuSans-97"/>
      <use transform="translate(466.748047 0.015625)" xlink:href="#DejaVuSans-103"/>
      <use transform="translate(530.224609 0.015625)" xlink:href="#DejaVuSans-101"/>
      <use transform="translate(591.748047 0.015625)" xlink:href="#DejaVuSans-32"/>
      <use transform="translate(623.535156 0.015625)" xlink:href="#DejaVuSans-91"/>
      <use transform="translate(662.548828 0.015625)" xlink:href="#DejaVuSans-Oblique-68"/>
      <use transform="translate(739.550781 0.015625)" xlink:href="#DejaVuSans-Oblique-65"/>
      <use transform="translate(807.958984 0.015625)" xlink:href="#DejaVuSans-Oblique-67"/>
      <use transform="translate(877.783203 -16.390625)scale(0.7)" xlink:href="#DejaVuSans-Oblique-105"/>
      <use transform="translate(897.231445 -16.390625)scale(0.7)" xlink:href="#DejaVuSans-Oblique-110"/>
      <use transform="translate(941.59668 -16.390625)scale(0.7)" xlink:href="#DejaVuSans-Oblique-106"/>
      <use transform="translate(963.779297 0.015625)" xlink:href="#DejaVuSans-32"/>
      <use transform="translate(995.566406 0.015625)" xlink:href="#DejaVuSans-99"/>
      <use transform="translate(1050.546875 0.015625)" xlink:href="#DejaVuSans-111"/>
      <use transform="translate(1111.728516 0.015625)" xlink:href="#DejaVuSans-100"/>
      <use transform="translate(1175.205078 0.015625)" xlink:href="#DejaVuSans-101"/>
      <use transform="translate(1236.728516 0.015625)" xlink:href="#DejaVuSans-93"/>
     </g>
    </g>
   </g>
   <g id="matplotlib.axis_2">
    <g id="ytick_1">
     <g id="line2d_13">
      <path clip-path="url(#p11b0559d5b)" d="M 47.24375 354.958125 
L 515.96375 354.958125 
" style="fill:none;stroke:#b0b0b0;stroke-linecap:square;stroke-width:0.8;"/>
     </g>
     <g id="line2d_14">
      <defs>
       <path d="M 0 0 
L -3.5 0 
" id="m9a8b967da5" style="stroke:#000000;stroke-width:0.8;"/>
      </defs>
      <g>
       <use style="stroke:#000000;stroke-width:0.8;" x="47.24375" xlink:href="#m9a8b967da5" y="354.958125"/>
      </g>
     </g>
     <g id="text_8">
      <!-- 100 -->
      <g transform="translate(21.15625 358.757344)scale(0.1 -0.1)">
       <use xlink:href="#DejaVuSans-49"/>
       <use x="63.623047" xlink:href="#DejaVuSans-48"/>
       <use x="127.246094" xlink:href="#DejaVuSans-48"/>
      </g>
     </g>
    </g>
    <g id="ytick_2">
     <g id="line2d_15">
      <path clip-path="url(#p11b0559d5b)" d="M 47.24375 313.378125 
L 515.96375 313.378125 
" style="fill:none;stroke:#b0b0b0;stroke-linecap:square;stroke-width:0.8;"/>
     </g>
     <g id="line2d_16">
      <g>
       <use style="stroke:#000000;stroke-width:0.8;" x="47.24375" xlink:href="#m9a8b967da5" y="313.378125"/>
      </g>
     </g>
     <g id="text_9">
      <!-- 150 -->
      <g transform="translate(21.15625 317.177344)scale(0.1 -0.1)">
       <use xlink:href="#DejaVuSans-49"/>
       <use x="63.623047" xlink:href="#DejaVuSans-53"/>
       <use x="127.246094" xlink:href="#DejaVuSans-48"/>
      </g>
     </g>
    </g>
    <g id="ytick_3">
     <g id="line2d_17">
      <path clip-path="url(#p11b0559d5b)" d="M 47.24375 271.798125 
L 515.96375 271.798125 
" style="fill:none;stroke:#b0b0b0;stroke-linecap:square;stroke-width:0.8;"/>
     </g>
     <g id="line2d_18">
      <g>
       <use style="stroke:#000000;stroke-width:0.8;" x="47.24375" xlink:href="#m9a8b967da5" y="271.798125"/>
      </g>
     </g>
     <g id="text_10">
      <!-- 200 -->
      <g transform="translate(21.15625 275.597344)scale(0.1 -0.1)">
       <use xlink:href="#DejaVuSans-50"/>
       <use x="63.623047" xlink:href="#DejaVuSans-48"/>
       <use x="127.246094" xlink:href="#DejaVuSans-48"/>
      </g>
     </g>
    </g>
    <g id="ytick_4">
     <g id="line2d_19">
      <path clip-path="url(#p11b0559d5b)" d="M 47.24375 230.218125 
L 515.96375 230.218125 
" style="fill:none;stroke:#b0b0b0;stroke-linecap:square;stroke-width:0.8;"/>
     </g>
     <g id="line2d_20">
      <g>
       <use style="stroke:#000000;stroke-width:0.8;" x="47.24375" xlink:href="#m9a8b967da5" y="230.218125"/>
      </g>
     </g>
     <g id="text_11">
      <!-- 250 -->
      <g transform="translate(21.15625 234.017344)scale(0.1 -0.1)">
       <use xlink:href="#DejaVuSans-50"/>
       <use x="63.623047" xlink:href="#DejaVuSans-53"/>
       <use x="127.246094" xlink:href="#DejaVuSans-48"/>
      </g>
     </g>
    </g>
    <g id="ytick_5">
     <g id="line2d_21">
      <path clip-path="url(#p11b0559d5b)" d="M 47.24375 188.638125 
L 515.96375 188.638125 
" style="fill:none;stroke:#b0b0b0;stroke-linecap:square;stroke-width:0.8;"/>
     </g>
     <g id="line2d_22">
      <g>
       <use style="stroke:#000000;stroke-width:0.8;" x="47.24375" xlink:href="#m9a8b967da5" y="188.638125"/>
      </g>
     </g>
     <g id="text_12">
      <!-- 300 -->
      <g transform="translate(21.15625 192.437344)scale(0.1 -0.1)">
       <use xlink:href="#DejaVuSans-51"/>
       <use x="63.623047" xlink:href="#DejaVuSans-48"/>
       <use x="127.246094" xlink:href="#DejaVuSans-48"/>
      </g>
     </g>
    </g>
    <g id="ytick_6">
     <g id="line2d_23">
      <path clip-path="url(#p11b0559d5b)" d="M 47.24375 147.058125 
L 515.96375 147.058125 
" style="fill:none;stroke:#b0b0b0;stroke-linecap:square;stroke-width:0.8;"/>
     </g>
     <g id="line2d_24">
      <g>
       <use style="stroke:#000000;stroke-width:0.8;" x="47.24375" xlink:href="#m9a8b967da5" y="147.058125"/>
      </g>
     </g>
     <g id="text_13">
      <!-- 350 -->
      <g transform="translate(21.15625 150.857344)scale(0.1 -0.1)">
       <use xlink:href="#DejaVuSans-51"/>
       <use x="63.623047" xlink:href="#DejaVuSans-53"/>
       <use x="127.246094" xlink:href="#DejaVuSans-48"/>
      </g>
     </g>
    </g>
    <g id="ytick_7">
     <g id="line2d_25">
      <path clip-path="url(#p11b0559d5b)" d="M 47.24375 105.478125 
L 515.96375 105.478125 
" style="fill:none;stroke:#b0b0b0;stroke-linecap:square;stroke-width:0.8;"/>
     </g>
     <g id="line2d_26">
      <g>
       <use style="stroke:#000000;stroke-width:0.8;" x="47.24375" xlink:href="#m9a8b967da5" y="105.478125"/>
      </g>
     </g>
     <g id="text_14">
      <!-- 400 -->
      <g transform="translate(21.15625 109.277344)scale(0.1 -0.1)">
       <use xlink:href="#DejaVuSans-52"/>
       <use x="63.623047" xlink:href="#DejaVuSans-48"/>
       <use x="127.246094" xlink:href="#DejaVuSans-48"/>
      </g>
     </g>
    </g>
    <g id="ytick_8">
     <g id="line2d_27">
      <path clip-path="url(#p11b0559d5b)" d="M 47.24375 63.898125 
L 515.96375 63.898125 
" style="fill:none;stroke:#b0b0b0;stroke-linecap:square;stroke-width:0.8;"/>
     </g>
     <g id="line2d_28">
      <g>
       <use style="stroke:#000000;stroke-width:0.8;" x="47.24375" xlink:href="#m9a8b967da5" y="63.898125"/>
      </g>
     </g>
     <g id="text_15">
      <!-- 450 -->
      <g transform="translate(21.15625 67.697344)scale(0.1 -0.1)">
       <use xlink:href="#DejaVuSans-52"/>
       <use x="63.623047" xlink:href="#DejaVuSans-53"/>
       <use x="127.246094" xlink:href="#DejaVuSans-48"/>
      </g>
     </g>
    </g>
    <g id="ytick_9">
     <g id="line2d_29">
      <path clip-path="url(#p11b0559d5b)" d="M 47.24375 22.318125 
L 515.96375 22.318125 
" style="fill:none;stroke:#b0b0b0;stroke-linecap:square;stroke-width:0.8;"/>
     </g>
     <g id="line2d_30">
      <g>
       <use style="stroke:#000000;stroke-width:0.8;" x="47.24375" xlink:href="#m9a8b967da5" y="22.318125"/>
      </g>
     </g>
     <g id="text_16">
      <!-- 500 -->
      <g transform="translate(21.15625 26.117344)scale(0.1 -0.1)">
       <use xlink:href="#DejaVuSans-53"/>
       <use x="63.623047" xlink:href="#DejaVuSans-48"/>
       <use x="127.246094" xlink:href="#DejaVuSans-48"/>
      </g>
     </g>
    </g>
    <g id="text_17">
     <!-- Channel_out [ADC code] -->
     <g transform="translate(14.798438 249.754531)rotate(-90)scale(0.1 -0.1)">
      <defs>
       <path d="M 54.890625 33.015625 
L 54.890625 0 
L 45.90625 0 
L 45.90625 32.71875 
Q 45.90625 40.484375 42.875 44.328125 
Q 39.84375 48.1875 33.796875 48.1875 
Q 26.515625 48.1875 22.3125 43.546875 
Q 18.109375 38.921875 18.109375 30.90625 
L 18.109375 0 
L 9.078125 0 
L 9.078125 75.984375 
L 18.109375 75.984375 
L 18.109375 46.1875 
Q 21.34375 51.125 25.703125 53.5625 
Q 30.078125 56 35.796875 56 
Q 45.21875 56 50.046875 50.171875 
Q 54.890625 44.34375 54.890625 33.015625 
z
" id="DejaVuSans-104"/>
       <path d="M 54.890625 33.015625 
L 54.890625 0 
L 45.90625 0 
L 45.90625 32.71875 
Q 45.90625 40.484375 42.875 44.328125 
Q 39.84375 48.1875 33.796875 48.1875 
Q 26.515625 48.1875 22.3125 43.546875 
Q 18.109375 38.921875 18.109375 30.90625 
L 18.109375 0 
L 9.078125 0 
L 9.078125 54.6875 
L 18.109375 54.6875 
L 18.109375 46.1875 
Q 21.34375 51.125 25.703125 53.5625 
Q 30.078125 56 35.796875 56 
Q 45.21875 56 50.046875 50.171875 
Q 54.890625 44.34375 54.890625 33.015625 
z
" id="DejaVuSans-110"/>
       <path d="M 8.5 21.578125 
L 8.5 54.6875 
L 17.484375 54.6875 
L 17.484375 21.921875 
Q 17.484375 14.15625 20.5 10.265625 
Q 23.53125 6.390625 29.59375 6.390625 
Q 36.859375 6.390625 41.078125 11.03125 
Q 45.3125 15.671875 45.3125 23.6875 
L 45.3125 54.6875 
L 54.296875 54.6875 
L 54.296875 0 
L 45.3125 0 
L 45.3125 8.40625 
Q 42.046875 3.421875 37.71875 1 
Q 33.40625 -1.421875 27.6875 -1.421875 
Q 18.265625 -1.421875 13.375 4.4375 
Q 8.5 10.296875 8.5 21.578125 
z
M 31.109375 56 
z
" id="DejaVuSans-117"/>
       <path d="M 34.1875 63.1875 
L 20.796875 26.90625 
L 47.609375 26.90625 
z
M 28.609375 72.90625 
L 39.796875 72.90625 
L 67.578125 0 
L 57.328125 0 
L 50.6875 18.703125 
L 17.828125 18.703125 
L 11.1875 0 
L 0.78125 0 
z
" id="DejaVuSans-65"/>
       <path d="M 19.671875 64.796875 
L 19.671875 8.109375 
L 31.59375 8.109375 
Q 46.6875 8.109375 53.6875 14.9375 
Q 60.6875 21.78125 60.6875 36.53125 
Q 60.6875 51.171875 53.6875 57.984375 
Q 46.6875 64.796875 31.59375 64.796875 
z
M 9.8125 72.90625 
L 30.078125 72.90625 
Q 51.265625 72.90625 61.171875 64.09375 
Q 71.09375 55.28125 71.09375 36.53125 
Q 71.09375 17.671875 61.125 8.828125 
Q 51.171875 0 30.078125 0 
L 9.8125 0 
z
" id="DejaVuSans-68"/>
      </defs>
      <use xlink:href="#DejaVuSans-67"/>
      <use x="69.824219" xlink:href="#DejaVuSans-104"/>
      <use x="133.203125" xlink:href="#DejaVuSans-97"/>
      <use x="194.482422" xlink:href="#DejaVuSans-110"/>
      <use x="257.861328" xlink:href="#DejaVuSans-110"/>
      <use x="321.240234" xlink:href="#DejaVuSans-101"/>
      <use x="382.763672" xlink:href="#DejaVuSans-108"/>
      <use x="410.546875" xlink:href="#DejaVuSans-95"/>
      <use x="460.546875" xlink:href="#DejaVuSans-111"/>
      <use x="521.728516" xlink:href="#DejaVuSans-117"/>
      <use x="585.107422" xlink:href="#DejaVuSans-116"/>
      <use x="624.316406" xlink:href="#DejaVuSans-32"/>
      <use x="656.103516" xlink:href="#DejaVuSans-91"/>
      <use x="695.117188" xlink:href="#DejaVuSans-65"/>
      <use x="763.525391" xlink:href="#DejaVuSans-68"/>
      <use x="840.527344" xlink:href="#DejaVuSans-67"/>
      <use x="910.351562" xlink:href="#DejaVuSans-32"/>
      <use x="942.138672" xlink:href="#DejaVuSans-99"/>
      <use x="997.119141" xlink:href="#DejaVuSans-111"/>
      <use x="1058.300781" xlink:href="#DejaVuSans-100"/>
      <use x="1121.777344" xlink:href="#DejaVuSans-101"/>
      <use x="1183.300781" xlink:href="#DejaVuSans-93"/>
     </g>
    </g>
   </g>
   <g id="line2d_31">
    <defs>
     <path d="M 0 3 
C 0.795609 3 1.55874 2.683901 2.12132 2.12132 
C 2.683901 1.55874 3 0.795609 3 0 
C 3 -0.795609 2.683901 -1.55874 2.12132 -2.12132 
C 1.55874 -2.683901 0.795609 -3 0 -3 
C -0.795609 -3 -1.55874 -2.683901 -2.12132 -2.12132 
C -2.683901 -1.55874 -3 -0.795609 -3 0 
C -3 0.795609 -2.683901 1.55874 -2.12132 2.12132 
C -1.55874 2.683901 -0.795609 3 0 3 
z
" id="m04057af4ce" style="stroke:#000000;"/>
    </defs>
    <g clip-path="url(#p11b0559d5b)">
     <use style="fill-opacity:0;stroke:#000000;" x="77.071386" xlink:href="#m04057af4ce" y="342.725289"/>
     <use style="fill-opacity:0;stroke:#000000;" x="85.593568" xlink:href="#m04057af4ce" y="333.511161"/>
     <use style="fill-opacity:0;stroke:#000000;" x="94.11575" xlink:href="#m04057af4ce" y="324.746097"/>
     <use style="fill-opacity:0;stroke:#000000;" x="102.637932" xlink:href="#m04057af4ce" y="316.662945"/>
     <use style="fill-opacity:0;stroke:#000000;" x="111.160114" xlink:href="#m04057af4ce" y="309.012225"/>
     <use style="fill-opacity:0;stroke:#000000;" x="119.682295" xlink:href="#m04057af4ce" y="300.546537"/>
     <use style="fill-opacity:0;stroke:#000000;" x="128.204477" xlink:href="#m04057af4ce" y="293.477937"/>
     <use style="fill-opacity:0;stroke:#000000;" x="136.726659" xlink:href="#m04057af4ce" y="285.511209"/>
     <use style="fill-opacity:0;stroke:#000000;" x="145.248841" xlink:href="#m04057af4ce" y="277.902069"/>
     <use style="fill-opacity:0;stroke:#000000;" x="153.771023" xlink:href="#m04057af4ce" y="271.573593"/>
     <use style="fill-opacity:0;stroke:#000000;" x="238.992841" xlink:href="#m04057af4ce" y="206.933325"/>
     <use style="fill-opacity:0;stroke:#000000;" x="324.214659" xlink:href="#m04057af4ce" y="152.895957"/>
     <use style="fill-opacity:0;stroke:#000000;" x="409.436477" xlink:href="#m04057af4ce" y="108.288933"/>
     <use style="fill-opacity:0;stroke:#000000;" x="494.658295" xlink:href="#m04057af4ce" y="72.372129"/>
    </g>
   </g>
   <g id="line2d_32">
    <path clip-path="url(#p11b0559d5b)" d="M 68.549205 346.047729 
L 462.007106 -1 
L 462.007106 -1 
" style="fill:none;stroke:#0000ff;stroke-linecap:square;stroke-width:1.5;"/>
   </g>
   <g id="line2d_33">
    <path clip-path="url(#p11b0559d5b)" d="M 68.549205 350.769654 
L 78.78606 340.202156 
L 89.44945 329.514519 
L 100.112841 319.13888 
L 111.202767 308.663794 
L 122.292693 298.495247 
L 133.809155 288.24426 
L 145.325617 278.292242 
L 157.268615 268.271481 
L 169.211612 258.540505 
L 181.581146 248.75173 
L 193.950679 239.242593 
L 206.746748 229.684617 
L 219.969352 220.090847 
L 233.191956 210.769936 
L 246.841096 201.420412 
L 260.916772 192.05447 
L 274.992448 182.956049 
L 289.494659 173.850304 
L 303.99687 165.007224 
L 318.499082 156.418998 
L 333.427829 147.838298 
L 348.356576 139.517475 
L 363.285322 131.454735 
L 377.787534 123.869928 
L 392.289745 116.531609 
L 406.791956 109.444302 
L 420.867632 102.811678 
L 434.516772 96.619123 
L 448.165912 90.670788 
L 461.388517 85.150965 
L 474.184585 80.046821 
L 486.554119 75.345467 
L 494.658295 72.39461 
L 494.658295 72.39461 
" style="fill:none;stroke:#ff0000;stroke-dasharray:9.6,2.4,1.5,2.4;stroke-dashoffset:0;stroke-width:1.5;"/>
   </g>
   <g id="patch_3">
    <path d="M 47.24375 354.958125 
L 47.24375 22.318125 
" style="fill:none;stroke:#000000;stroke-linecap:square;stroke-linejoin:miter;stroke-width:0.8;"/>
   </g>
   <g id="patch_4">
    <path d="M 515.96375 354.958125 
L 515.96375 22.318125 
" style="fill:none;stroke:#000000;stroke-linecap:square;stroke-linejoin:miter;stroke-width:0.8;"/>
   </g>
   <g id="patch_5">
    <path d="M 47.24375 354.958125 
L 515.96375 354.958125 
" style="fill:none;stroke:#000000;stroke-linecap:square;stroke-linejoin:miter;stroke-width:0.8;"/>
   </g>
   <g id="patch_6">
    <path d="M 47.24375 22.318125 
L 515.96375 22.318125 
" style="fill:none;stroke:#000000;stroke-linecap:square;stroke-linejoin:miter;stroke-width:0.8;"/>
   </g>
   <g id="text_18">
    <!-- Low energy gain for channel #23, tau: 5 -->
    <g transform="translate(160.34375 16.318125)scale(0.12 -0.12)">
     <defs>
      <path d="M 9.8125 72.90625 
L 19.671875 72.90625 
L 19.671875 8.296875 
L 55.171875 8.296875 
L 55.171875 0 
L 9.8125 0 
z
" id="DejaVuSans-76"/>
      <path d="M 4.203125 54.6875 
L 13.1875 54.6875 
L 24.421875 12.015625 
L 35.59375 54.6875 
L 46.1875 54.6875 
L 57.421875 12.015625 
L 68.609375 54.6875 
L 77.59375 54.6875 
L 63.28125 0 
L 52.6875 0 
L 40.921875 44.828125 
L 29.109375 0 
L 18.5 0 
z
" id="DejaVuSans-119"/>
      <path d="M 41.109375 46.296875 
Q 39.59375 47.171875 37.8125 47.578125 
Q 36.03125 48 33.890625 48 
Q 26.265625 48 22.1875 43.046875 
Q 18.109375 38.09375 18.109375 28.8125 
L 18.109375 0 
L 9.078125 0 
L 9.078125 54.6875 
L 18.109375 54.6875 
L 18.109375 46.1875 
Q 20.953125 51.171875 25.484375 53.578125 
Q 30.03125 56 36.53125 56 
Q 37.453125 56 38.578125 55.875 
Q 39.703125 55.765625 41.0625 55.515625 
z
" id="DejaVuSans-114"/>
      <path d="M 32.171875 -5.078125 
Q 28.375 -14.84375 24.75 -17.8125 
Q 21.140625 -20.796875 15.09375 -20.796875 
L 7.90625 -20.796875 
L 7.90625 -13.28125 
L 13.1875 -13.28125 
Q 16.890625 -13.28125 18.9375 -11.515625 
Q 21 -9.765625 23.484375 -3.21875 
L 25.09375 0.875 
L 2.984375 54.6875 
L 12.5 54.6875 
L 29.59375 11.921875 
L 46.6875 54.6875 
L 56.203125 54.6875 
z
" id="DejaVuSans-121"/>
      <path d="M 9.421875 54.6875 
L 18.40625 54.6875 
L 18.40625 0 
L 9.421875 0 
z
M 9.421875 75.984375 
L 18.40625 75.984375 
L 18.40625 64.59375 
L 9.421875 64.59375 
z
" id="DejaVuSans-105"/>
      <path d="M 37.109375 75.984375 
L 37.109375 68.5 
L 28.515625 68.5 
Q 23.6875 68.5 21.796875 66.546875 
Q 19.921875 64.59375 19.921875 59.515625 
L 19.921875 54.6875 
L 34.71875 54.6875 
L 34.71875 47.703125 
L 19.921875 47.703125 
L 19.921875 0 
L 10.890625 0 
L 10.890625 47.703125 
L 2.296875 47.703125 
L 2.296875 54.6875 
L 10.890625 54.6875 
L 10.890625 58.5 
Q 10.890625 67.625 15.140625 71.796875 
Q 19.390625 75.984375 28.609375 75.984375 
z
" id="DejaVuSans-102"/>
      <path d="M 51.125 44 
L 36.921875 44 
L 32.8125 27.6875 
L 47.125 27.6875 
z
M 43.796875 71.78125 
L 38.71875 51.515625 
L 52.984375 51.515625 
L 58.109375 71.78125 
L 65.921875 71.78125 
L 60.890625 51.515625 
L 76.125 51.515625 
L 76.125 44 
L 58.984375 44 
L 54.984375 27.6875 
L 70.515625 27.6875 
L 70.515625 20.21875 
L 53.078125 20.21875 
L 48 0 
L 40.1875 0 
L 45.21875 20.21875 
L 30.90625 20.21875 
L 25.875 0 
L 18.015625 0 
L 23.09375 20.21875 
L 7.71875 20.21875 
L 7.71875 27.6875 
L 24.90625 27.6875 
L 29 44 
L 13.28125 44 
L 13.28125 51.515625 
L 30.90625 51.515625 
L 35.890625 71.78125 
z
" id="DejaVuSans-35"/>
      <path d="M 11.71875 12.40625 
L 22.015625 12.40625 
L 22.015625 4 
L 14.015625 -11.625 
L 7.71875 -11.625 
L 11.71875 4 
z
" id="DejaVuSans-44"/>
      <path d="M 11.71875 12.40625 
L 22.015625 12.40625 
L 22.015625 0 
L 11.71875 0 
z
M 11.71875 51.703125 
L 22.015625 51.703125 
L 22.015625 39.3125 
L 11.71875 39.3125 
z
" id="DejaVuSans-58"/>
     </defs>
     <use xlink:href="#DejaVuSans-76"/>
     <use x="53.962891" xlink:href="#DejaVuSans-111"/>
     <use x="115.144531" xlink:href="#DejaVuSans-119"/>
     <use x="196.931641" xlink:href="#DejaVuSans-32"/>
     <use x="228.71875" xlink:href="#DejaVuSans-101"/>
     <use x="290.242188" xlink:href="#DejaVuSans-110"/>
     <use x="353.621094" xlink:href="#DejaVuSans-101"/>
     <use x="415.144531" xlink:href="#DejaVuSans-114"/>
     <use x="454.507812" xlink:href="#DejaVuSans-103"/>
     <use x="517.984375" xlink:href="#DejaVuSans-121"/>
     <use x="577.164062" xlink:href="#DejaVuSans-32"/>
     <use x="608.951172" xlink:href="#DejaVuSans-103"/>
     <use x="672.427734" xlink:href="#DejaVuSans-97"/>
     <use x="733.707031" xlink:href="#DejaVuSans-105"/>
     <use x="761.490234" xlink:href="#DejaVuSans-110"/>
     <use x="824.869141" xlink:href="#DejaVuSans-32"/>
     <use x="856.65625" xlink:href="#DejaVuSans-102"/>
     <use x="891.861328" xlink:href="#DejaVuSans-111"/>
     <use x="953.042969" xlink:href="#DejaVuSans-114"/>
     <use x="994.15625" xlink:href="#DejaVuSans-32"/>
     <use x="1025.943359" xlink:href="#DejaVuSans-99"/>
     <use x="1080.923828" xlink:href="#DejaVuSans-104"/>
     <use x="1144.302734" xlink:href="#DejaVuSans-97"/>
     <use x="1205.582031" xlink:href="#DejaVuSans-110"/>
     <use x="1268.960938" xlink:href="#DejaVuSans-110"/>
     <use x="1332.339844" xlink:href="#DejaVuSans-101"/>
     <use x="1393.863281" xlink:href="#DejaVuSans-108"/>
     <use x="1421.646484" xlink:href="#DejaVuSans-32"/>
     <use x="1453.433594" xlink:href="#DejaVuSans-35"/>
     <use x="1537.222656" xlink:href="#DejaVuSans-50"/>
     <use x="1600.845703" xlink:href="#DejaVuSans-51"/>
     <use x="1664.46875" xlink:href="#DejaVuSans-44"/>
     <use x="1696.255859" xlink:href="#DejaVuSans-32"/>
     <use x="1728.042969" xlink:href="#DejaVuSans-116"/>
     <use x="1767.251953" xlink:href="#DejaVuSans-97"/>
     <use x="1828.53125" xlink:href="#DejaVuSans-117"/>
     <use x="1891.910156" xlink:href="#DejaVuSans-58"/>
     <use x="1925.601562" xlink:href="#DejaVuSans-32"/>
     <use x="1957.388672" xlink:href="#DejaVuSans-53"/>
    </g>
   </g>
   <g id="legend_1">
    <g id="patch_7">
     <path d="M 523.65975 212.177187 
L 771.75975 212.177187 
Q 773.75975 212.177187 773.75975 210.177187 
L 773.75975 167.099062 
Q 773.75975 165.099062 771.75975 165.099062 
L 523.65975 165.099062 
Q 521.65975 165.099062 521.65975 167.099062 
L 521.65975 210.177187 
Q 521.65975 212.177187 523.65975 212.177187 
z
" style="fill:#ffffff;opacity:0.8;stroke:#cccccc;stroke-linejoin:miter;"/>
    </g>
    <g id="line2d_34"/>
    <g id="line2d_35">
     <g>
      <use style="fill-opacity:0;stroke:#000000;" x="535.65975" xlink:href="#m04057af4ce" y="173.1975"/>
     </g>
    </g>
    <g id="text_19">
     <!-- data -->
     <g transform="translate(553.65975 176.6975)scale(0.1 -0.1)">
      <use xlink:href="#DejaVuSans-100"/>
      <use x="63.476562" xlink:href="#DejaVuSans-97"/>
      <use x="124.755859" xlink:href="#DejaVuSans-116"/>
      <use x="163.964844" xlink:href="#DejaVuSans-97"/>
     </g>
    </g>
    <g id="line2d_36">
     <path d="M 525.65975 187.877187 
L 545.65975 187.877187 
" style="fill:none;stroke:#0000ff;stroke-linecap:square;stroke-width:1.5;"/>
    </g>
    <g id="line2d_37"/>
    <g id="text_20">
     <!-- linear interpolation, $G_0$ = 0.904 -->
     <g transform="translate(553.65975 191.377187)scale(0.1 -0.1)">
      <defs>
       <path d="M 18.109375 8.203125 
L 18.109375 -20.796875 
L 9.078125 -20.796875 
L 9.078125 54.6875 
L 18.109375 54.6875 
L 18.109375 46.390625 
Q 20.953125 51.265625 25.265625 53.625 
Q 29.59375 56 35.59375 56 
Q 45.5625 56 51.78125 48.09375 
Q 58.015625 40.1875 58.015625 27.296875 
Q 58.015625 14.40625 51.78125 6.484375 
Q 45.5625 -1.421875 35.59375 -1.421875 
Q 29.59375 -1.421875 25.265625 0.953125 
Q 20.953125 3.328125 18.109375 8.203125 
z
M 48.6875 27.296875 
Q 48.6875 37.203125 44.609375 42.84375 
Q 40.53125 48.484375 33.40625 48.484375 
Q 26.265625 48.484375 22.1875 42.84375 
Q 18.109375 37.203125 18.109375 27.296875 
Q 18.109375 17.390625 22.1875 11.75 
Q 26.265625 6.109375 33.40625 6.109375 
Q 40.53125 6.109375 44.609375 11.75 
Q 48.6875 17.390625 48.6875 27.296875 
z
" id="DejaVuSans-112"/>
       <path d="M 54.59375 10.890625 
L 58.40625 29.984375 
L 42.1875 29.984375 
L 43.703125 38.09375 
L 69.578125 38.09375 
L 63.28125 6 
Q 56.78125 2.4375 49.109375 0.5 
Q 41.453125 -1.421875 33.6875 -1.421875 
Q 19.96875 -1.421875 12.234375 6.1875 
Q 4.5 13.8125 4.5 27.390625 
Q 4.5 38.671875 9.203125 48.84375 
Q 13.921875 59.03125 22.21875 65.828125 
Q 27.4375 70.0625 33.640625 72.140625 
Q 39.84375 74.21875 47.40625 74.21875 
Q 54.25 74.21875 60.515625 72.484375 
Q 66.796875 70.75 72.515625 67.28125 
L 70.515625 56.78125 
Q 66.109375 61.375 60.203125 63.796875 
Q 54.296875 66.21875 47.609375 66.21875 
Q 39.84375 66.21875 33.9375 63.25 
Q 28.03125 60.296875 23.390625 54.109375 
Q 19.4375 48.828125 17.15625 41.671875 
Q 14.890625 34.515625 14.890625 27.09375 
Q 14.890625 16.890625 20.109375 11.734375 
Q 25.34375 6.59375 35.6875 6.59375 
Q 40.875 6.59375 45.703125 7.6875 
Q 50.53125 8.796875 54.59375 10.890625 
z
" id="DejaVuSans-Oblique-71"/>
       <path d="M 10.59375 45.40625 
L 73.1875 45.40625 
L 73.1875 37.203125 
L 10.59375 37.203125 
z
M 10.59375 25.484375 
L 73.1875 25.484375 
L 73.1875 17.1875 
L 10.59375 17.1875 
z
" id="DejaVuSans-61"/>
       <path d="M 10.6875 12.40625 
L 21 12.40625 
L 21 0 
L 10.6875 0 
z
" id="DejaVuSans-46"/>
       <path d="M 10.984375 1.515625 
L 10.984375 10.5 
Q 14.703125 8.734375 18.5 7.8125 
Q 22.3125 6.890625 25.984375 6.890625 
Q 35.75 6.890625 40.890625 13.453125 
Q 46.046875 20.015625 46.78125 33.40625 
Q 43.953125 29.203125 39.59375 26.953125 
Q 35.25 24.703125 29.984375 24.703125 
Q 19.046875 24.703125 12.671875 31.3125 
Q 6.296875 37.9375 6.296875 49.421875 
Q 6.296875 60.640625 12.9375 67.421875 
Q 19.578125 74.21875 30.609375 74.21875 
Q 43.265625 74.21875 49.921875 64.515625 
Q 56.59375 54.828125 56.59375 36.375 
Q 56.59375 19.140625 48.40625 8.859375 
Q 40.234375 -1.421875 26.421875 -1.421875 
Q 22.703125 -1.421875 18.890625 -0.6875 
Q 15.09375 0.046875 10.984375 1.515625 
z
M 30.609375 32.421875 
Q 37.25 32.421875 41.125 36.953125 
Q 45.015625 41.5 45.015625 49.421875 
Q 45.015625 57.28125 41.125 61.84375 
Q 37.25 66.40625 30.609375 66.40625 
Q 23.96875 66.40625 20.09375 61.84375 
Q 16.21875 57.28125 16.21875 49.421875 
Q 16.21875 41.5 20.09375 36.953125 
Q 23.96875 32.421875 30.609375 32.421875 
z
" id="DejaVuSans-57"/>
      </defs>
      <use transform="translate(0 0.015625)" xlink:href="#DejaVuSans-108"/>
      <use transform="translate(27.783203 0.015625)" xlink:href="#DejaVuSans-105"/>
      <use transform="translate(55.566406 0.015625)" xlink:href="#DejaVuSans-110"/>
      <use transform="translate(118.945312 0.015625)" xlink:href="#DejaVuSans-101"/>
      <use transform="translate(180.46875 0.015625)" xlink:href="#DejaVuSans-97"/>
      <use transform="translate(241.748047 0.015625)" xlink:href="#DejaVuSans-114"/>
      <use transform="translate(282.861328 0.015625)" xlink:href="#DejaVuSans-32"/>
      <use transform="translate(314.648438 0.015625)" xlink:href="#DejaVuSans-105"/>
      <use transform="translate(342.431641 0.015625)" xlink:href="#DejaVuSans-110"/>
      <use transform="translate(405.810547 0.015625)" xlink:href="#DejaVuSans-116"/>
      <use transform="translate(445.019531 0.015625)" xlink:href="#DejaVuSans-101"/>
      <use transform="translate(506.542969 0.015625)" xlink:href="#DejaVuSans-114"/>
      <use transform="translate(547.65625 0.015625)" xlink:href="#DejaVuSans-112"/>
      <use transform="translate(611.132812 0.015625)" xlink:href="#DejaVuSans-111"/>
      <use transform="translate(672.314453 0.015625)" xlink:href="#DejaVuSans-108"/>
      <use transform="translate(700.097656 0.015625)" xlink:href="#DejaVuSans-97"/>
      <use transform="translate(761.376953 0.015625)" xlink:href="#DejaVuSans-116"/>
      <use transform="translate(800.585938 0.015625)" xlink:href="#DejaVuSans-105"/>
      <use transform="translate(828.369141 0.015625)" xlink:href="#DejaVuSans-111"/>
      <use transform="translate(889.550781 0.015625)" xlink:href="#DejaVuSans-110"/>
      <use transform="translate(952.929688 0.015625)" xlink:href="#DejaVuSans-44"/>
      <use transform="translate(984.716797 0.015625)" xlink:href="#DejaVuSans-32"/>
      <use transform="translate(1016.503906 0.015625)" xlink:href="#DejaVuSans-Oblique-71"/>
      <use transform="translate(1093.994141 -16.390625)scale(0.7)" xlink:href="#DejaVuSans-48"/>
      <use transform="translate(1141.264648 0.015625)" xlink:href="#DejaVuSans-32"/>
      <use transform="translate(1173.051758 0.015625)" xlink:href="#DejaVuSans-61"/>
      <use transform="translate(1256.84082 0.015625)" xlink:href="#DejaVuSans-32"/>
      <use transform="translate(1288.62793 0.015625)" xlink:href="#DejaVuSans-48"/>
      <use transform="translate(1352.250977 0.015625)" xlink:href="#DejaVuSans-46"/>
      <use transform="translate(1384.038086 0.015625)" xlink:href="#DejaVuSans-57"/>
      <use transform="translate(1447.661133 0.015625)" xlink:href="#DejaVuSans-48"/>
      <use transform="translate(1511.28418 0.015625)" xlink:href="#DejaVuSans-52"/>
     </g>
    </g>
    <g id="line2d_38">
     <path d="M 525.65975 202.577187 
L 545.65975 202.577187 
" style="fill:none;stroke:#ff0000;stroke-dasharray:9.6,2.4,1.5,2.4;stroke-dashoffset:0;stroke-width:1.5;"/>
    </g>
    <g id="line2d_39"/>
    <g id="text_21">
     <!-- power 4 interpolation [10-500], $G_0$ = 1.073 -->
     <g transform="translate(553.65975 206.077187)scale(0.1 -0.1)">
      <defs>
       <path d="M 4.890625 31.390625 
L 31.203125 31.390625 
L 31.203125 23.390625 
L 4.890625 23.390625 
z
" id="DejaVuSans-45"/>
       <path d="M 8.203125 72.90625 
L 55.078125 72.90625 
L 55.078125 68.703125 
L 28.609375 0 
L 18.3125 0 
L 43.21875 64.59375 
L 8.203125 64.59375 
z
" id="DejaVuSans-55"/>
      </defs>
      <use transform="translate(0 0.015625)" xlink:href="#DejaVuSans-112"/>
      <use transform="translate(63.476562 0.015625)" xlink:href="#DejaVuSans-111"/>
      <use transform="translate(124.658203 0.015625)" xlink:href="#DejaVuSans-119"/>
      <use transform="translate(206.445312 0.015625)" xlink:href="#DejaVuSans-101"/>
      <use transform="translate(267.96875 0.015625)" xlink:href="#DejaVuSans-114"/>
      <use transform="translate(309.082031 0.015625)" xlink:href="#DejaVuSans-32"/>
      <use transform="translate(340.869141 0.015625)" xlink:href="#DejaVuSans-52"/>
      <use transform="translate(404.492188 0.015625)" xlink:href="#DejaVuSans-32"/>
      <use transform="translate(436.279297 0.015625)" xlink:href="#DejaVuSans-105"/>
      <use transform="translate(464.0625 0.015625)" xlink:href="#DejaVuSans-110"/>
      <use transform="translate(527.441406 0.015625)" xlink:href="#DejaVuSans-116"/>
      <use transform="translate(566.650391 0.015625)" xlink:href="#DejaVuSans-101"/>
      <use transform="translate(628.173828 0.015625)" xlink:href="#DejaVuSans-114"/>
      <use transform="translate(669.287109 0.015625)" xlink:href="#DejaVuSans-112"/>
      <use transform="translate(732.763672 0.015625)" xlink:href="#DejaVuSans-111"/>
      <use transform="translate(793.945312 0.015625)" xlink:href="#DejaVuSans-108"/>
      <use transform="translate(821.728516 0.015625)" xlink:href="#DejaVuSans-97"/>
      <use transform="translate(883.007812 0.015625)" xlink:href="#DejaVuSans-116"/>
      <use transform="translate(922.216797 0.015625)" xlink:href="#DejaVuSans-105"/>
      <use transform="translate(950 0.015625)" xlink:href="#DejaVuSans-111"/>
      <use transform="translate(1011.181641 0.015625)" xlink:href="#DejaVuSans-110"/>
      <use transform="translate(1074.560547 0.015625)" xlink:href="#DejaVuSans-32"/>
      <use transform="translate(1106.347656 0.015625)" xlink:href="#DejaVuSans-91"/>
      <use transform="translate(1145.361328 0.015625)" xlink:href="#DejaVuSans-49"/>
      <use transform="translate(1208.984375 0.015625)" xlink:href="#DejaVuSans-48"/>
      <use transform="translate(1272.607422 0.015625)" xlink:href="#DejaVuSans-45"/>
      <use transform="translate(1308.691406 0.015625)" xlink:href="#DejaVuSans-53"/>
      <use transform="translate(1372.314453 0.015625)" xlink:href="#DejaVuSans-48"/>
      <use transform="translate(1435.9375 0.015625)" xlink:href="#DejaVuSans-48"/>
      <use transform="translate(1499.560547 0.015625)" xlink:href="#DejaVuSans-93"/>
      <use transform="translate(1538.574219 0.015625)" xlink:href="#DejaVuSans-44"/>
      <use transform="translate(1570.361328 0.015625)" xlink:href="#DejaVuSans-32"/>
      <use transform="translate(1602.148438 0.015625)" xlink:href="#DejaVuSans-Oblique-71"/>
      <use transform="translate(1679.638672 -16.390625)scale(0.7)" xlink:href="#DejaVuSans-48"/>
      <use transform="translate(1726.90918 0.015625)" xlink:href="#DejaVuSans-32"/>
      <use transform="translate(1758.696289 0.015625)" xlink:href="#DejaVuSans-61"/>
      <use transform="translate(1842.485352 0.015625)" xlink:href="#DejaVuSans-32"/>
      <use transform="translate(1874.272461 0.015625)" xlink:href="#DejaVuSans-49"/>
      <use transform="translate(1937.895508 0.015625)" xlink:href="#DejaVuSans-46"/>
      <use transform="translate(1969.682617 0.015625)" xlink:href="#DejaVuSans-48"/>
      <use transform="translate(2033.305664 0.015625)" xlink:href="#DejaVuSans-55"/>
      <use transform="translate(2096.928711 0.015625)" xlink:href="#DejaVuSans-51"/>
     </g>
    </g>
   </g>
  </g>
 </g>
 <defs>
  <clipPath id="p11b0559d5b">
   <rect height="332.64" width="468.72" x="47.24375" y="22.318125"/>
  </clipPath>
 </defs>
</svg>
